<?xml version="1.0" encoding="utf-8"?>
<!-- Generator: Adobe Illustrator 26.5.0, SVG Export Plug-In . SVG Version: 6.00 Build 0)  -->
<svg version="1.1" id="Capa_1" xmlns="http://www.w3.org/2000/svg" xmlns:xlink="http://www.w3.org/1999/xlink" x="0px" y="0px"
 viewBox="0 0 284.8 284.8" style="enable-background:new 0 0 284.8 284.8;" xml:space="preserve">
<style type="text/css">
.st0{fill:#585559;}
</style>
<g>
<g>
<path class="st0" d="M142.4,212.5c-6.4,0-12.5-2.5-16.9-7l-93.9-92.4c-9-8.9-9.7-24.1-0.9-33.2c4.6-4.9,10.8-7.5,17.6-7.5
c6.5,0,12.5,2.5,16.9,7l77.2,76.1l77.2-76.1c4.6-4.5,10.5-7,16.9-7c6.4,0,12.5,2.5,16.9,7c4.6,4.5,7.1,10.4,7.1,16.7
s-2.5,12.3-7.1,16.7l-94.1,92.9C154.9,210,148.8,212.5,142.4,212.5z M48.2,82.9c1,0.6-5.2,15.8-8.5,15.1c-2-0.4-3.4-6.7-1-11.2
c3.2-5.9,12.4-7.2,14.3-4.8c1.4,1.9-0.2,7.3-14.3,23.4c34.9,20.5,69.8,41,104.7,61.6c0.1,23.3-0.3,35-1.1,35
c-0.7,0-1.8-10.2-3.2-30.7c29.4-28.2,58.8-56.3,88.2-84.5c1.1,0.4,21.9,8.7,20.8,16.3c-0.5,3.1-4.4,4.9-6,5.6
c-13.9,6.3-32.3-4.4-32.1-4.7c0.2-0.4,24,7.2,23.9,7.5c-0.1,0.3-20.8-2-22.1-9.2c-0.9-5,7.4-10.8,15.6-15.4l-84.8,83.6
c-36.5-22.5-73-45-109.4-67.6C43.5,87.3,47.5,82.5,48.2,82.9z"/>
</g>
</g>
<path class="st0" d="M312.8,49.8"/>
</svg>