<?xml version="1.0" encoding="utf-8"?>
<!-- Generator: Adobe Illustrator 26.5.0, SVG Export Plug-In . SVG Version: 6.00 Build 0)  -->
<svg version="1.1" id="Layer_1" xmlns="http://www.w3.org/2000/svg" xmlns:xlink="http://www.w3.org/1999/xlink" x="0px" y="0px"
	 viewBox="0 0 708 143" style="enable-background:new 0 0 708 143;" xml:space="preserve">
<style type="text/css">
	.st0{fill:#FFFFFF;}
</style>
<g>
	<g>
		<g>
			<path class="st0" d="M66.8,126.9V60.4h46.4v8.7H78.1v20.1h31.4V98H78.1v20.2h35.1v8.6H66.8z"/>
		</g>
		<g>
			<path class="st0" d="M54.6,83.5H21V17h32.2c6.6,0,11.5,1.6,14.6,4.7c3.2,3.1,4.8,7.5,4.8,13.1c0,3.5-0.7,6.6-2.1,9
				c-1.4,2.5-3.3,4.3-5.7,5.5c3.2,0.9,5.8,2.5,7.7,4.8c1.9,2.3,2.9,5.7,2.9,10.2c0,6.5-1.7,11.3-5.2,14.4
				C66.5,81.9,61.4,83.5,54.6,83.5z M32.2,25.4v19.9h19.5c3.8,0,6.5-0.9,8.1-2.7c1.6-1.8,2.4-4.1,2.4-7c0-3.5-0.8-6.1-2.5-7.7
				c-1.6-1.7-4.8-2.5-9.3-2.5H32.2z M32.2,53.6v21.6h20c4,0,6.9-0.8,8.8-2.5c1.9-1.7,2.8-4.6,2.8-8.9c0-3.4-0.9-6-2.8-7.6
				c-1.8-1.7-5.2-2.5-10-2.5H32.2z"/>
		</g>
	</g>
	<g>
		<path class="st0" d="M206.5,97H175V34.7h30.2c6.2,0,10.7,1.5,13.7,4.4c3,2.9,4.4,7,4.4,12.3c0,3.3-0.7,6.1-2,8.5s-3.1,4-5.4,5.2
			c3,0.8,5.4,2.3,7.2,4.5c1.8,2.2,2.7,5.4,2.7,9.6c0,6.1-1.6,10.6-4.9,13.5C217.6,95.5,212.8,97,206.5,97z M185.5,42.6v18.7h18.2
			c3.6,0,6.1-0.8,7.6-2.5c1.5-1.7,2.3-3.9,2.3-6.6c0-3.3-0.8-5.7-2.3-7.3c-1.5-1.6-4.4-2.4-8.7-2.4H185.5z M185.5,69.1v20.2h18.8
			c3.7,0,6.5-0.8,8.2-2.4c1.7-1.6,2.6-4.3,2.6-8.3c0-3.2-0.9-5.6-2.6-7.2c-1.7-1.6-4.8-2.4-9.3-2.4H185.5z"/>
		<path class="st0" d="M268.9,96.6c-2.7,0.4-5.5,0.7-8.5,0.7c-8,0-14.2-2-18.6-5.9c-4.4-3.9-6.6-10-6.6-18c0-7.4,1.9-13.2,5.6-17.4
			s9.4-6.4,17-6.4c7,0,12.3,1.8,15.8,5.5c3.5,3.6,5.3,8.4,5.3,14.1v8.5h-33.6c0.5,4.5,2.1,7.5,4.9,9.2c2.7,1.7,6.8,2.5,12.3,2.5
			c2.3,0,4.7-0.2,7.2-0.7c2.4-0.4,4.6-1,6.4-1.7v7.7C273.9,95.5,271.5,96.2,268.9,96.6z M248,60.6c-1.8,2.1-2.8,5.5-2.8,10.1h24.3
			v-3.2c0-3.1-0.9-5.6-2.6-7.4c-1.8-1.8-4.7-2.7-8.8-2.7C253.2,57.4,249.8,58.5,248,60.6z"/>
		<path class="st0" d="M319.9,93.9c-3.3,2.2-8.1,3.3-14.4,3.3c-3.1,0-6.1-0.2-9-0.7c-2.8-0.4-5.2-1-7.1-1.6v-8.9
			c2.2,0.8,4.6,1.5,7.3,2c2.6,0.4,5.1,0.6,7.5,0.6c3.6,0,6.2-0.3,7.7-0.9c1.5-0.6,2.3-1.9,2.3-3.8c0-1.4-0.5-2.4-1.4-3.2
			c-0.9-0.8-2.3-1.5-4.1-2.1c-1.8-0.7-4.2-1.4-7-2.3c-2.7-0.9-5.1-1.9-7-2.9c-2-1.1-3.6-2.4-4.7-4.1c-1.1-1.7-1.6-3.9-1.6-6.6
			c0-4.2,1.5-7.5,4.5-9.7c3-2.3,7.9-3.4,14.6-3.4c2.7,0,5.2,0.2,7.6,0.6c2.4,0.4,4.4,0.9,6.1,1.5v8.8c-1.8-0.7-3.7-1.3-5.9-1.7
			c-2.2-0.4-4.2-0.5-6.1-0.5c-3.4,0-5.9,0.3-7.6,0.8c-1.7,0.6-2.5,1.7-2.5,3.5c0,1.8,0.9,3.1,2.6,3.8c1.8,0.7,4.7,1.7,8.6,3
			c3.6,1.1,6.5,2.2,8.6,3.5c2.1,1.2,3.6,2.7,4.6,4.4c0.9,1.7,1.4,3.9,1.4,6.6C324.9,88.3,323.2,91.7,319.9,93.9z"/>
		<path class="st0" d="M362.3,95.8c-2.5,1-5.5,1.5-9.2,1.5c-4.9,0-8.5-1.3-10.9-3.9c-2.4-2.6-3.6-6.2-3.6-10.7v-24h-6.8v-8.2h6.8V40
			l10.4-3.2v13.7h12.2l-0.6,8.2H349V82c0,2.7,0.6,4.5,1.9,5.6c1.2,1.1,3.3,1.6,6.1,1.6c1.7,0,3.5-0.3,5.4-1V95.8z"/>
		<path class="st0" d="M373,97V34.7h43.4v8.2h-32.9v18.9h29.4v8.2h-29.4v19h32.9V97H373z"/>
		<path class="st0" d="M434.5,96.3h-11.4L440.6,73l-16.8-22.5h11.3l11.2,15.3l11.2-15.3h11.3L452.1,73l17.4,23.3h-11.5l-11.7-15.9
			L434.5,96.3z"/>
		<path class="st0" d="M506.6,96.6c-2.4,0.5-5.1,0.7-8.1,0.7c-8.1,0-14.2-2-18.3-6.1c-4.1-4.1-6.2-10-6.2-17.7
			c0-8.1,2.3-14.1,6.8-18c4.5-3.9,10.6-5.9,18.2-5.9c3.2,0,5.9,0.2,8,0.7c2.1,0.4,4.2,1.1,6.2,2.1v7.8c-3.3-1.7-7.4-2.6-12.2-2.6
			c-5.3,0-9.3,1.2-12.1,3.6c-2.8,2.4-4.2,6.5-4.2,12.3c0,5.5,1.2,9.5,3.7,12c2.5,2.6,6.6,3.8,12.5,3.8c4.6,0,8.7-0.9,12.5-2.6v8
			C511.2,95.5,509,96.1,506.6,96.6z"/>
		<path class="st0" d="M530.7,96.7h-8.9v-8.3h8.9V96.7z"/>
		<path class="st0" d="M541.5,117.2V50.5h9.1l0.6,4.5c2-1.8,4.3-3.2,6.7-4.1c2.5-0.9,5.4-1.4,8.8-1.4c6.6,0,11.7,1.8,15.4,5.4
			c3.6,3.6,5.5,9.5,5.5,17.8c0,8.2-1.9,14.4-5.7,18.5c-3.8,4.1-9,6.1-15.6,6.1c-5.5,0-10.3-1.3-14.2-3.8v23.8H541.5z M557,88.2
			c1.9,0.7,4,1.1,6.5,1.1c8.9,0,13.3-5.6,13.3-16.8c0-5.4-1-9.3-3-11.6c-2-2.3-5.4-3.5-10.1-3.5c-4.7,0-8.6,1.6-11.8,4.9v22.9
			C553.5,86.5,555.1,87.5,557,88.2z"/>
		<path class="st0" d="M609.2,96.3h-10.5V50.5h9.7l0.5,5.3c2.2-1.4,4.8-2.7,7.8-3.9c3-1.2,6-2,9-2.4v8c-1.7,0.4-3.6,0.8-5.8,1.4
			c-2.1,0.6-4.1,1.3-6,2c-1.8,0.7-3.4,1.5-4.8,2.3V96.3z"/>
		<path class="st0" d="M679.2,73.4c0,7.7-1.9,13.6-5.7,17.7c-3.8,4.1-9.9,6.2-18.2,6.2c-8.3,0-14.4-2.1-18.2-6.2
			c-3.8-4.1-5.7-10-5.7-17.7s1.9-13.6,5.8-17.7c3.9-4.1,9.9-6.2,18.2-6.2c8.2,0,14.3,2.1,18.2,6.2C677.2,59.8,679.2,65.7,679.2,73.4
			z M642,73.4c0,5.3,1,9.1,3,11.5c2,2.3,5.4,3.5,10.2,3.5c4.8,0,8.2-1.2,10.2-3.5c2-2.3,3-6.2,3-11.5c0-5.3-1-9.1-3-11.4
			c-2-2.3-5.4-3.5-10.2-3.5c-4.8,0-8.2,1.2-10.2,3.5C643,64.2,642,68.1,642,73.4z"/>
	</g>
</g>
</svg>
