<?xml version="1.0" encoding="utf-8"?>
<!-- Generator: Adobe Illustrator 26.5.0, SVG Export Plug-In . SVG Version: 6.00 Build 0)  -->
<svg version="1.1" id="Layer_2" xmlns="http://www.w3.org/2000/svg" xmlns:xlink="http://www.w3.org/1999/xlink" x="0px" y="0px"
	 viewBox="0 0 125 143" style="enable-background:new 0 0 125 143;" xml:space="preserve">
<style type="text/css">
	.st0{fill:#FFFFFF;}
</style>
<g>
	<g>
		<path class="st0" d="M64.1,124.4V57.9h46.4v8.7H75.3v20.1h31.4v8.7H75.3v20.2h35.2v8.6H64.1z"/>
	</g>
	<g>
		<path class="st0" d="M51.8,81H18.2V14.5h32.2c6.6,0,11.5,1.6,14.6,4.7c3.2,3.1,4.8,7.5,4.8,13.1c0,3.5-0.7,6.6-2.1,9
			c-1.4,2.5-3.3,4.3-5.7,5.5c3.2,0.9,5.8,2.5,7.7,4.8c1.9,2.3,2.8,5.7,2.8,10.2c0,6.5-1.7,11.3-5.2,14.4C63.8,79.4,58.6,81,51.8,81z
			 M29.4,22.9v19.9h19.5c3.8,0,6.5-0.9,8.1-2.7c1.6-1.8,2.4-4.1,2.4-7c0-3.5-0.8-6.1-2.5-7.7c-1.6-1.7-4.8-2.5-9.3-2.5H29.4z
			 M29.4,51.2v21.6h20c4,0,6.9-0.8,8.8-2.5c1.9-1.7,2.8-4.6,2.8-8.9c0-3.4-0.9-6-2.8-7.6c-1.8-1.7-5.2-2.5-10-2.5H29.4z"/>
	</g>
</g>
</svg>
