<?xml version="1.0" encoding="utf-8"?>
<!-- Generator: Adobe Illustrator 26.5.0, SVG Export Plug-In . SVG Version: 6.00 Build 0)  -->
<svg version="1.1" id="Layer_1" xmlns="http://www.w3.org/2000/svg" xmlns:xlink="http://www.w3.org/1999/xlink" x="0px" y="0px"
	 viewBox="0 0 63 63" style="enable-background:new 0 0 63 63;" xml:space="preserve">
<style type="text/css">
	.st0{fill-rule:evenodd;clip-rule:evenodd;fill:url(#SVGID_1_);}
	.st1{fill:#FFFFFF;}
</style>
<linearGradient id="SVGID_1_" gradientUnits="userSpaceOnUse" x1="66.4039" y1="1085.7772" x2="-23.0229" y2="988.6703" gradientTransform="matrix(1 0 0 1 0 -1016)">
	<stop  offset="0" style="stop-color:#4A6EC3"/>
	<stop  offset="1" style="stop-color:#0033AD"/>
</linearGradient>
<path class="st0" d="M34.5,1l21.6,12.5c1,0.6,1.8,1.4,2.4,2.4c0.6,1,0.9,2.1,0.9,3.2v25c0,1.1-0.3,2.3-0.9,3.2
	c-0.6,1-1.4,1.8-2.4,2.4L34.5,62.1c-1,0.6-2.1,0.9-3.2,0.9c-1.1,0-2.3-0.3-3.2-0.9L6.3,49.6c-1-0.6-1.8-1.4-2.4-2.4S3,45.1,3,44V19
	c0-1.1,0.3-2.3,0.9-3.2c0.6-1,1.4-1.8,2.4-2.4L28,1c1-0.6,2.1-0.9,3.2-0.9C32.3,0.1,33.5,0.4,34.5,1z"/>
<path class="st1" d="M31.1,44.4c0.2,0,0.5,0.1,0.6,0.3c0.2,0.2,0.3,0.4,0.3,0.6c0,0.2-0.1,0.5-0.3,0.6c-0.2,0.2-0.4,0.3-0.6,0.3
	s-0.5-0.1-0.6-0.3s-0.3-0.4-0.3-0.6c0-0.2,0.1-0.5,0.3-0.6C30.7,44.5,30.9,44.4,31.1,44.4z M23.5,44c0.2,0,0.4,0.1,0.5,0.2
	c0.1,0.1,0.2,0.3,0.2,0.5s-0.1,0.4-0.2,0.5s-0.3,0.2-0.5,0.2s-0.4-0.1-0.5-0.2c-0.1-0.1-0.2-0.3-0.2-0.5s0.1-0.4,0.2-0.5
	C23.1,44.1,23.3,44,23.5,44z M39,44c0.1,0,0.2,0,0.3,0.1c0.1,0,0.2,0.1,0.2,0.2c0.1,0.1,0.1,0.1,0.2,0.2c0,0.1,0.1,0.2,0.1,0.3
	s0,0.2-0.1,0.3c0,0.1-0.1,0.2-0.2,0.2c-0.1,0.1-0.1,0.1-0.2,0.2c-0.1,0-0.2,0.1-0.3,0.1c-0.2,0-0.4-0.1-0.5-0.2
	c-0.1-0.1-0.2-0.3-0.2-0.5s0.1-0.4,0.2-0.5C38.6,44,38.8,44,39,44z M25.5,40.1c0.3,0,0.6,0.1,0.8,0.3c0.2,0.2,0.3,0.5,0.3,0.8
	s-0.1,0.6-0.3,0.8c-0.2,0.2-0.5,0.3-0.8,0.3s-0.6-0.1-0.8-0.3c-0.2-0.2-0.3-0.5-0.3-0.8s0.1-0.6,0.3-0.8
	C24.9,40.2,25.2,40.1,25.5,40.1z M36.9,40.1c0.1,0,0.3,0,0.4,0.1c0.1,0.1,0.3,0.1,0.4,0.2c0.1,0.1,0.2,0.2,0.2,0.4
	C38,40.9,38,41,38,41.2c0,0.1,0,0.3-0.1,0.4c-0.1,0.1-0.1,0.3-0.2,0.4c-0.1,0.1-0.2,0.2-0.4,0.2c-0.1,0.1-0.3,0.1-0.4,0.1
	c-0.3,0-0.6-0.1-0.8-0.3s-0.3-0.5-0.3-0.8s0.1-0.6,0.3-0.8C36.4,40.2,36.6,40.1,36.9,40.1z M31.2,38.8c0.2,0,0.3,0,0.5,0.1
	s0.3,0.2,0.4,0.3c0.1,0.1,0.2,0.3,0.3,0.4c0.1,0.2,0.1,0.3,0.1,0.5s0,0.3-0.1,0.5s-0.2,0.3-0.3,0.4c-0.1,0.1-0.3,0.2-0.4,0.3
	c-0.2,0.1-0.3,0.1-0.5,0.1c-0.3,0-0.6-0.2-0.9-0.4c-0.2-0.2-0.4-0.6-0.4-0.9c0-0.3,0.1-0.6,0.4-0.9C30.5,39,30.8,38.8,31.2,38.8z
	 M19,37.5c0.2,0,0.5,0.1,0.6,0.3c0.2,0.2,0.3,0.4,0.3,0.6c0,0.2-0.1,0.5-0.3,0.6c-0.2,0.2-0.4,0.3-0.6,0.3s-0.5-0.1-0.6-0.3
	s-0.3-0.4-0.3-0.6c0-0.2,0.1-0.5,0.3-0.6C18.6,37.5,18.8,37.5,19,37.5z M43.4,37.4c0.2,0,0.5,0.1,0.6,0.3c0.2,0.2,0.3,0.4,0.3,0.6
	c0,0.2-0.1,0.5-0.3,0.6c-0.2,0.2-0.4,0.3-0.6,0.3s-0.5-0.1-0.6-0.3c-0.2-0.2-0.3-0.4-0.3-0.6c0-0.2,0.1-0.5,0.3-0.6
	C42.9,37.5,43.2,37.4,43.4,37.4z M28.6,33.5c0.6,0,1.2,0.2,1.6,0.7c0.4,0.4,0.7,1,0.7,1.6s-0.2,1.2-0.7,1.6c-0.4,0.4-1,0.7-1.6,0.7
	s-1.2-0.2-1.6-0.7c-0.4-0.4-0.7-1-0.7-1.6s0.2-1.2,0.7-1.6C27.5,33.8,28.1,33.5,28.6,33.5z M33.8,33.5c0.6,0,1.2,0.2,1.6,0.7
	c0.4,0.4,0.7,1,0.7,1.6s-0.2,1.2-0.7,1.6c-0.4,0.4-1,0.7-1.6,0.7s-1.2-0.2-1.6-0.7c-0.4-0.4-0.7-1-0.7-1.6s0.2-1.2,0.7-1.6
	C32.6,33.7,33.2,33.5,33.8,33.5z M23.6,34.4c0.2,0,0.3,0,0.5,0.1s0.3,0.2,0.4,0.3s0.2,0.3,0.3,0.4c0.1,0.2,0.1,0.3,0.1,0.5
	s0,0.3-0.1,0.5s-0.2,0.3-0.3,0.4c-0.1,0.1-0.3,0.2-0.4,0.3C23.9,37,23.8,37,23.6,37c-0.3,0-0.6-0.2-0.9-0.4
	c-0.2-0.2-0.4-0.6-0.4-0.9c0-0.3,0.1-0.6,0.4-0.9C23,34.6,23.3,34.4,23.6,34.4z M38.8,34.4c0.2,0,0.3,0,0.5,0.1s0.3,0.2,0.4,0.3
	c0.1,0.1,0.2,0.3,0.3,0.4c0.1,0.2,0.1,0.3,0.1,0.5s0,0.3-0.1,0.5s-0.2,0.3-0.3,0.4s-0.3,0.2-0.4,0.3C39.1,37,39,37,38.8,37
	c-0.3,0-0.6-0.2-0.9-0.4c-0.2-0.2-0.4-0.6-0.4-0.9c0-0.3,0.1-0.6,0.4-0.9C38.2,34.5,38.5,34.4,38.8,34.4z M26.1,29.1
	c0.6,0,1.2,0.2,1.6,0.7c0.4,0.4,0.7,1,0.7,1.6c0,0.6-0.2,1.2-0.7,1.6c-0.4,0.4-1,0.7-1.6,0.7s-1.2-0.2-1.6-0.7
	c-0.4-0.4-0.7-1-0.7-1.6s0.2-1.2,0.7-1.6C24.9,29.3,25.5,29.1,26.1,29.1z M36.3,29c0.6,0,1.2,0.2,1.6,0.7c0.4,0.4,0.7,1,0.7,1.6
	s-0.2,1.2-0.7,1.6c-0.4,0.4-1,0.7-1.6,0.7s-1.2-0.2-1.6-0.7c-0.4-0.4-0.7-1-0.7-1.6s0.2-1.2,0.7-1.6C35.2,29.3,35.8,29,36.3,29z
	 M19.8,30.2c0.1,0,0.3,0,0.4,0.1s0.3,0.1,0.4,0.2s0.2,0.2,0.2,0.4c0.1,0.1,0.1,0.3,0.1,0.4s0,0.3-0.1,0.4s-0.1,0.3-0.2,0.4
	c-0.1,0.1-0.2,0.2-0.4,0.2c-0.1,0.1-0.3,0.1-0.4,0.1c-0.3,0-0.6-0.1-0.8-0.3c-0.2-0.2-0.3-0.5-0.3-0.8s0.1-0.6,0.3-0.8
	C19.2,30.3,19.5,30.2,19.8,30.2z M42.6,30.1c0.1,0,0.3,0,0.4,0.1c0.1,0.1,0.3,0.1,0.4,0.2c0.1,0.1,0.2,0.2,0.3,0.4
	c0.1,0.1,0.1,0.3,0.1,0.4s0,0.3-0.1,0.4s-0.1,0.3-0.3,0.4c-0.2,0.1-0.2,0.2-0.4,0.2c-0.1,0.1-0.3,0.1-0.4,0.1
	c-0.3,0-0.6-0.1-0.8-0.3s-0.3-0.5-0.3-0.8s0.1-0.6,0.3-0.8C42.1,30.3,42.3,30.2,42.6,30.1z M15.7,30.6c0.2,0,0.4,0.1,0.5,0.2
	s0.2,0.3,0.2,0.5s-0.1,0.4-0.2,0.5S15.9,32,15.7,32s-0.4-0.1-0.5-0.2C15,31.7,15,31.5,15,31.3s0.1-0.4,0.2-0.5
	C15.3,30.7,15.5,30.6,15.7,30.6z M46.7,30.5c0.2,0,0.4,0.1,0.5,0.2s0.2,0.3,0.2,0.5s-0.1,0.4-0.2,0.5c-0.1,0.1-0.3,0.2-0.5,0.2
	s-0.4-0.1-0.5-0.2c-0.2,0-0.2-0.2-0.2-0.4s0.1-0.4,0.2-0.5C46.3,30.6,46.5,30.5,46.7,30.5z M28.6,24.6c0.3,0,0.6,0,0.9,0.2
	c0.3,0.1,0.5,0.3,0.7,0.5s0.4,0.5,0.5,0.7c0.1,0.3,0.2,0.6,0.2,0.9s-0.1,0.6-0.2,0.9s-0.3,0.5-0.5,0.7s-0.5,0.4-0.7,0.5
	c-0.3,0.1-0.6,0.2-0.9,0.2c-0.6,0-1.1-0.3-1.5-0.7c-0.4-0.4-0.6-1-0.6-1.5c0-0.6,0.2-1.1,0.6-1.5C27.5,24.9,28,24.6,28.6,24.6z
	 M33.8,24.6c0.3,0,0.6,0,0.9,0.2c0.3,0.1,0.5,0.3,0.7,0.5s0.4,0.5,0.5,0.7c0.1,0.3,0.2,0.6,0.2,0.9s-0.1,0.6-0.2,0.9
	c-0.1,0.3-0.3,0.5-0.5,0.7s-0.5,0.4-0.7,0.5c-0.4,0-0.6,0-0.9,0c-0.6,0-1.1-0.3-1.5-0.7c-0.4-0.4-0.6-1-0.6-1.5s0.2-1.1,0.6-1.5
	C32.6,24.9,33.2,24.6,33.8,24.6z M23.6,25.6c0.2,0,0.3,0,0.5,0.1s0.3,0.2,0.4,0.3c0.1,0.1,0.2,0.3,0.3,0.4c0.1,0.2,0.1,0.3,0.1,0.5
	s0,0.3-0.1,0.5s-0.2,0.3-0.3,0.4c-0.1,0.1-0.3,0.2-0.4,0.3c-0.2,0.1-0.3,0.1-0.5,0.1c-0.3,0-0.6-0.2-0.9-0.4
	c-0.2-0.2-0.4-0.6-0.4-0.9s0.1-0.6,0.4-0.9C22.9,25.8,23.2,25.6,23.6,25.6z M38.8,25.6c0.2,0,0.3,0,0.5,0.1s0.3,0.2,0.4,0.3
	c0.1,0.1,0.2,0.3,0.3,0.4c0.1,0.2,0.1,0.3,0.1,0.5s0,0.3-0.1,0.5s-0.2,0.3-0.3,0.4s-0.3,0.2-0.4,0.3c-0.2,0.1-0.3,0.1-0.5,0.1
	c-0.3,0-0.6-0.2-0.9-0.4c-0.2-0.2-0.4-0.6-0.4-0.9s0.1-0.7,0.4-0.9C38.2,25.7,38.5,25.6,38.8,25.6z M19,23.4c0.2,0,0.5,0.1,0.6,0.3
	c0.2,0.2,0.3,0.4,0.3,0.6s-0.1,0.5-0.3,0.6c-0.2,0.2-0.4,0.3-0.6,0.3s-0.5-0.1-0.6-0.3c-0.2-0.2-0.3-0.4-0.3-0.6s0.1-0.5,0.3-0.6
	C18.6,23.5,18.8,23.4,19,23.4z M43.4,23.3c0.2,0,0.5,0.1,0.6,0.3c0.2,0.2,0.3,0.4,0.3,0.6s-0.1,0.5-0.3,0.6
	c-0.2,0.2-0.4,0.3-0.6,0.3c-0.2,0-0.5-0.1-0.6-0.3c-0.2-0.2-0.3-0.4-0.3-0.6s0.1-0.5,0.3-0.6C42.9,23.4,43.1,23.3,43.4,23.3z
	 M31.2,21.2c0.2,0,0.3,0,0.5,0.1s0.3,0.2,0.4,0.3c0.1,0.1,0.2,0.3,0.3,0.4c0.1,0.2,0.1,0.3,0.1,0.5s0,0.3-0.1,0.5s-0.2,0.3-0.3,0.4
	s-0.3,0.2-0.4,0.3c-0.2,0.1-0.3,0.1-0.5,0.1c-0.3,0-0.6-0.2-0.9-0.4c-0.2-0.2-0.4-0.6-0.4-0.9s0.1-0.6,0.4-0.9
	C30.5,21.4,30.9,21.2,31.2,21.2z M25.5,20.3c0.1,0,0.3,0,0.4,0.1s0.3,0.1,0.4,0.2s0.2,0.2,0.3,0.4c0.1,0.1,0.1,0.3,0.1,0.4
	s0,0.3-0.1,0.4s-0.1,0.3-0.3,0.4c-0.1,0.1-0.2,0.2-0.4,0.2c-0.1,0.1-0.3,0.1-0.4,0.1c-0.3,0-0.6-0.1-0.8-0.3
	c-0.2-0.2-0.3-0.5-0.3-0.8s0.1-0.6,0.3-0.8C24.9,20.4,25.2,20.3,25.5,20.3z M36.9,20.3c0.3,0,0.6,0.1,0.8,0.3
	c0.2,0.2,0.3,0.5,0.3,0.8s-0.1,0.6-0.3,0.8c-0.2,0.2-0.5,0.3-0.8,0.3s-0.6-0.1-0.8-0.3c-0.2-0.2-0.3-0.5-0.3-0.8s0.1-0.6,0.3-0.8
	C36.3,20.4,36.6,20.3,36.9,20.3z M23.4,17.2c0.2,0,0.4,0.1,0.5,0.2s0.2,0.3,0.2,0.5s-0.1,0.4-0.2,0.5s-0.3,0.2-0.5,0.2
	s-0.4-0.1-0.5-0.2s-0.2-0.3-0.2-0.5s0.1-0.4,0.2-0.5C23.1,17.2,23.2,17.2,23.4,17.2z M38.9,17.1c0.2,0,0.4,0.1,0.5,0.2
	s0.2,0.3,0.2,0.5s-0.1,0.4-0.2,0.5c-0.1,0.1-0.3,0.2-0.5,0.2s-0.4-0.1-0.5-0.2s-0.2-0.3-0.2-0.5s0.1-0.4,0.2-0.5
	C38.5,17.2,38.7,17.1,38.9,17.1L38.9,17.1z M31.2,16.3c0.2,0,0.5,0.1,0.6,0.3c0.2,0.2,0.3,0.4,0.3,0.6s-0.1,0.5-0.3,0.6
	c-0.2,0.2-0.4,0.3-0.6,0.3s-0.5-0.1-0.6-0.3c-0.2-0.2-0.3-0.4-0.3-0.6s0.1-0.5,0.3-0.6C30.7,16.4,30.9,16.3,31.2,16.3z"/>
</svg>
