<?xml version="1.0" encoding="utf-8"?>
<!-- Generator: Adobe Illustrator 26.5.0, SVG Export Plug-In . SVG Version: 6.00 Build 0)  -->
<svg version="1.1" id="Layer_1" xmlns="http://www.w3.org/2000/svg" xmlns:xlink="http://www.w3.org/1999/xlink" x="0px" y="0px"
	 viewBox="0 0 63 63" style="enable-background:new 0 0 63 63;" xml:space="preserve">
<style type="text/css">
	.st0{fill-rule:evenodd;clip-rule:evenodd;fill:url(#SVGID_1_);}
	.st1{fill:#FFFFFF;}
</style>
<g>
	<g>
		
			<linearGradient id="SVGID_1_" gradientUnits="userSpaceOnUse" x1="-12.7609" y1="1023.3211" x2="73.7595" y2="1070.4921" gradientTransform="matrix(1 0 0 1 0 -1016)">
			<stop  offset="0" style="stop-color:#57F5C9"/>
			<stop  offset="1" style="stop-color:#0AC18E"/>
		</linearGradient>
		<path class="st0" d="M34.8,0.9l21.6,12.5c1,0.6,1.8,1.4,2.4,2.4c0.6,1,0.9,2.1,0.9,3.2v25c0,1.1-0.3,2.3-0.9,3.2
			c-0.6,1-1.4,1.8-2.4,2.4L34.8,62.1c-1,0.6-2.1,0.9-3.2,0.9c-1.1,0-2.3-0.3-3.2-0.9L6.6,49.6c-1-0.6-1.8-1.4-2.4-2.4
			S3.3,45.1,3.3,44V19c0-1.1,0.3-2.3,0.9-3.2c0.6-1,1.4-1.8,2.4-2.4L28.3,0.9c1-0.6,2.1-0.9,3.2-0.9C32.7,0,33.8,0.3,34.8,0.9z"/>
		<path class="st1" d="M39.6,23.7c-1.2-2.8-4.1-3.4-7.6-2.8l-1.1-4.3l-2.6,0.7l1.1,4.3c-0.7,0.2-1.4,0.3-2.1,0.5l-1.1-4.2l-2.6,0.7
			l1.1,4.3c-0.6,0.2-5.3,1.4-5.3,1.4l0.7,2.8l1.9-0.5c1.1-0.3,1.6,0.3,1.8,0.8l3.1,11.8c0,0.3,0,0.9-0.8,1.1l-1.9,0.5l0.3,3.3
			c0,0,4.7-1.2,5.3-1.3l1.1,4.3l2.6-0.7L32.4,42c0.7-0.2,1.4-0.3,2.1-0.5l1.1,4.3l2.6-0.7l-1.1-4.3c4.1-1,6.9-3.5,6.3-7.4
			c-0.4-2.3-3-4.2-5.1-4.5C39.7,27.5,40.4,25.9,39.6,23.7z M38.3,33.9c0.5,3.8-4.9,4.3-6.7,4.8L30,33C31.9,32.4,37.4,30.5,38.3,33.9
			z M35.1,26.1c0.6,3.4-4.1,3.8-5.6,4.2L28.1,25C29.6,24.7,33.9,22.9,35.1,26.1z"/>
	</g>
</g>
</svg>
