<?xml version="1.0" encoding="utf-8"?>
<!-- Generator: Adobe Illustrator 26.5.0, SVG Export Plug-In . SVG Version: 6.00 Build 0)  -->
<svg version="1.1" id="Layer_1" xmlns="http://www.w3.org/2000/svg" xmlns:xlink="http://www.w3.org/1999/xlink" x="0px" y="0px"
	 viewBox="0 0 63 63" style="enable-background:new 0 0 63 63;" xml:space="preserve">
<style type="text/css">
	.st0{fill-rule:evenodd;clip-rule:evenodd;fill:url(#SVGID_1_);}
	.st1{fill:#FFFFFF;}
</style>
<linearGradient id="SVGID_1_" gradientUnits="userSpaceOnUse" x1="3.389097e-02" y1="1019.6998" x2="63.7958" y2="1076.1229" gradientTransform="matrix(1 0 0 1 0 -1016)">
	<stop  offset="0" style="stop-color:#D8AC29"/>
	<stop  offset="1" style="stop-color:#FFB700"/>
</linearGradient>
<path class="st0" d="M34.7,0.9l21.6,12.5c1,0.6,1.8,1.4,2.4,2.4c0.6,1,0.9,2.1,0.9,3.2v25c0,1.1-0.3,2.3-0.9,3.2
	c-0.6,1-1.4,1.8-2.4,2.4L34.7,62.1c-1,0.6-2.1,0.9-3.2,0.9c-1.1,0-2.3-0.3-3.2-0.9L6.6,49.6c-1-0.6-1.8-1.4-2.4-2.4S3.3,45.1,3.3,44
	V19c0-1.1,0.3-2.3,0.9-3.2c0.6-1,1.4-1.8,2.4-2.4L28.2,0.9c1-0.6,2.1-0.9,3.2-0.9C32.6,0,33.7,0.3,34.7,0.9z"/>
<path class="st1" d="M25.8,29.1l5.7-5.7l5.7,5.7l3.3-3.3l-9-9l-9,9L25.8,29.1z M16.8,31.5l3.3-3.3l3.3,3.3l-3.3,3.3L16.8,31.5z
	 M25.8,33.8l5.7,5.7l5.7-5.7l3.3,3.3l0,0l-9,9l-9-9l0,0L25.8,33.8z M39.5,31.5l3.3-3.3l3.3,3.3l-3.3,3.3L39.5,31.5z"/>
<path class="st1" d="M34.8,31.5L34.8,31.5l-3.4-3.4L29,30.6l-0.3,0.3l-0.6,0.6l0,0l0,0l3.3,3.4L34.8,31.5L34.8,31.5L34.8,31.5"/>
</svg>
