<?xml version="1.0" encoding="utf-8"?>
<!-- Generator: Adobe Illustrator 26.5.0, SVG Export Plug-In . SVG Version: 6.00 Build 0)  -->
<svg version="1.1" id="Layer_1" xmlns="http://www.w3.org/2000/svg" xmlns:xlink="http://www.w3.org/1999/xlink" x="0px" y="0px"
	 viewBox="0 0 63 63" style="enable-background:new 0 0 63 63;" xml:space="preserve">
<style type="text/css">
	.st0{fill-rule:evenodd;clip-rule:evenodd;fill:url(#SVGID_1_);}
	.st1{fill-rule:evenodd;clip-rule:evenodd;fill:#FFFFFF;}
</style>
<linearGradient id="SVGID_1_" gradientUnits="userSpaceOnUse" x1="50.5316" y1="1058.7844" x2="9.0199" y2="1034.5527" gradientTransform="matrix(1 0 0 1 0 -1016)">
	<stop  offset="0" style="stop-color:#FF9400"/>
	<stop  offset="1" style="stop-color:#FFBB21"/>
</linearGradient>
<path class="st0" d="M34.5,0.9l21.6,12.5c1,0.6,1.8,1.4,2.4,2.4c0.6,1,0.9,2.1,0.9,3.2v25c0,1.1-0.3,2.3-0.9,3.2
	c-0.6,1-1.4,1.8-2.4,2.4L34.5,62.1c-1,0.6-2.1,0.9-3.2,0.9c-1.1,0-2.3-0.3-3.2-0.9L6.3,49.6c-1-0.6-1.8-1.4-2.4-2.4S3,45.1,3,44V19
	c0-1.1,0.3-2.3,0.9-3.2c0.6-1,1.4-1.8,2.4-2.4L28,0.9C29,0.3,30.1,0,31.2,0C32.3,0,33.5,0.3,34.5,0.9z"/>
<path class="st1" d="M38.5,41.9c-1.9,0.7-3.7,0.4-4.5,0.3c-0.4-0.1-1-0.2-1.7-0.3l-1.2,4.3l-2.7-0.7l1.1-4.3l-2-0.5L26.4,45
	l-2.7-0.7l1.1-4.3l-5.2-1.4l1.4-3.1l1.6,0.4c0.5,0.1,0.8,0.2,1.1,0c0.3-0.2,0.4-0.5,0.5-0.7l3-11c0.2-0.7,0.2-0.9,0-1.3
	s-1-0.7-1.4-0.8l-1.5-0.4l0.7-2.8l5.2,1.4l1.1-4.3l2.7,0.7L32.9,21l2,0.5l1.1-4.3l2.7,0.7l-1.2,4.3c2,0.7,3.3,1.4,4.4,2.7
	c1.3,1.7,0.7,3.8,0.5,4.3s-0.7,1.4-1.3,1.9S39.2,32,39.2,32s1.2,0.6,1.9,1.6c0.7,0.9,1.1,2.3,0.6,4.1C41.3,39.5,40.4,41.2,38.5,41.9
	z M33,32.6c-1-0.3-2-0.6-3-0.8l-1.5,5.7c0,0,1.8,0.5,3,0.7s2.5,0.3,3.2,0.1s1.6-0.5,1.9-1.8c0.4-1.3-0.4-2.1-0.8-2.5
	C35.3,33.7,34.3,33.1,33,32.6L33,32.6z M32.9,29.8c1,0.2,2.1,0.3,2.9,0.1c0.9-0.2,1.5-0.7,1.7-1.7s-0.2-2-1.2-2.6s-1.7-0.9-2.6-1.1
	c-0.8-0.2-1.7-0.4-1.7-0.4l-1.4,5.1C30.7,29.2,31.9,29.5,32.9,29.8z"/>
</svg>
