<?xml version="1.0" encoding="utf-8"?>
<!-- Generator: Adobe Illustrator 26.5.0, SVG Export Plug-In . SVG Version: 6.00 Build 0)  -->
<svg version="1.1" id="Layer_1" xmlns="http://www.w3.org/2000/svg" xmlns:xlink="http://www.w3.org/1999/xlink" x="0px" y="0px"
	 viewBox="0 0 63 63" style="enable-background:new 0 0 63 63;" xml:space="preserve">
<style type="text/css">
	.st0{fill-rule:evenodd;clip-rule:evenodd;fill:url(#SVGID_1_);}
	.st1{fill:#FFFFFF;}
</style>
<linearGradient id="SVGID_1_" gradientUnits="userSpaceOnUse" x1="-1.725665e-02" y1="1019.8757" x2="63.355" y2="1075.9541" gradientTransform="matrix(1 0 0 1 0 -1016)">
	<stop  offset="0" style="stop-color:#12CEF7"/>
	<stop  offset="1" style="stop-color:#5766F2"/>
</linearGradient>
<path class="st0" d="M34.4,1.1l21.5,12.4c1,0.6,1.8,1.4,2.4,2.4c0.6,1,0.9,2.1,0.9,3.2v24.8c0,1.1-0.3,2.2-0.9,3.2
	c-0.6,1-1.4,1.8-2.4,2.4L34.4,61.9c-1,0.6-2.1,0.9-3.2,0.9c-1.1,0-2.2-0.3-3.2-0.9L6.5,49.5c-1-0.6-1.8-1.4-2.4-2.4S3.2,45,3.2,43.9
	V19.1c0-1.1,0.3-2.2,0.9-3.2s1.4-1.8,2.4-2.4L28,1.1c1-0.6,2.1-0.9,3.2-0.9C32.3,0.2,33.5,0.5,34.4,1.1z"/>
<path class="st1" d="M34.1,20.2H23.5l-0.9,4.9h9.5c4.7,0,6.1,1.7,6,4.5c0,1.5-0.6,3.9-0.9,4.7c-0.7,2.1-2.2,4.5-7.8,4.5h-9.3
	l-0.9,4.9h10.5c3.7,0,5.3-0.4,7-1.2c3.7-1.7,5.9-5.4,6.8-10.2C45,25.3,43.4,20.2,34.1,20.2L34.1,20.2z"/>
<path class="st1" d="M18.9,29.5c-2.8,0-3.2,1.8-3.4,2.9c-0.3,1.4-0.5,2-0.5,2h10.8c2.8,0,3.2-1.8,3.4-2.9c0.3-1.4,0.5-2,0.5-2
	L18.9,29.5L18.9,29.5z"/>
</svg>
