<?xml version="1.0" encoding="utf-8"?>
<!-- Generator: Adobe Illustrator 26.5.0, SVG Export Plug-In . SVG Version: 6.00 Build 0)  -->
<svg version="1.1" id="Layer_1" xmlns="http://www.w3.org/2000/svg" xmlns:xlink="http://www.w3.org/1999/xlink" x="0px" y="0px"
	 viewBox="0 0 63 63" style="enable-background:new 0 0 63 63;" xml:space="preserve">
<style type="text/css">
	.st0{fill-rule:evenodd;clip-rule:evenodd;fill:url(#SVGID_1_);}
	.st1{fill:#FFFFFF;}
	.st2{fill-rule:evenodd;clip-rule:evenodd;fill:#FFFFFF;}
</style>
<linearGradient id="SVGID_1_" gradientUnits="userSpaceOnUse" x1="-26.8992" y1="-932.4638" x2="63.9476" y2="-1011.8566" gradientTransform="matrix(1 0 0 -1 0 -952)">
	<stop  offset="0" style="stop-color:#AAA27B"/>
	<stop  offset="1" style="stop-color:#978129"/>
</linearGradient>
<path class="st0" d="M34.7,0.9l21.6,12.4c1,0.6,1.8,1.4,2.4,2.4c0.6,1,0.9,2.1,0.9,3.2v25c0,1.1-0.3,2.3-0.9,3.2
	c-0.6,1-1.4,1.8-2.4,2.4L34.7,62.1c-1,0.6-2.1,0.9-3.2,0.9c-1.1,0-2.3-0.3-3.2-0.9L6.7,49.7c-1-0.6-1.8-1.4-2.4-2.4
	s-0.9-2.1-0.9-3.2V19c0-1.1,0.3-2.3,0.9-3.2c0.6-1,1.4-1.8,2.4-2.4L28.3,0.9c1-0.6,2.1-0.9,3.2-0.9C32.6,0,33.8,0.3,34.7,0.9z"/>
<path class="st1" d="M21.1,17l2.8-0.1c3.6-0.1,5.4-0.1,7.4,0c2.8,0.2,5.1,0.6,7.1,1.5c5.1,2.1,7.7,6.7,7.6,13.7v0.1
	c-0.3,6.7-2.8,11-7.3,12.9c-1.9,0.8-4,1.2-6.5,1.2c-1.8,0.1-3.2,0-6.9-0.2L23.9,46h-2.8V17z M26.9,22.7v17.8
	c5.4,0.3,7.6,0.1,9.5-0.7c2.3-1,3.6-3.1,3.8-7.8c0-4.8-1.3-7.1-4.1-8.3C34,22.9,31.6,22.6,26.9,22.7L26.9,22.7z"/>
<path class="st2" d="M17,29h15.3v5.3H17V29z"/>
</svg>
