<?xml version="1.0" encoding="utf-8"?>
<!-- Generator: Adobe Illustrator 26.5.0, SVG Export Plug-In . SVG Version: 6.00 Build 0)  -->
<svg version="1.1" id="Layer_1" xmlns="http://www.w3.org/2000/svg" xmlns:xlink="http://www.w3.org/1999/xlink" x="0px" y="0px"
	 viewBox="0 0 63 63" style="enable-background:new 0 0 63 63;" xml:space="preserve">
<style type="text/css">
	.st0{fill-rule:evenodd;clip-rule:evenodd;fill:#FFFFFF;}
	.st1{clip-path:url(#SVGID_00000102516560634402769200000013266390505484959392_);}
	.st2{fill:#E6007A;}
</style>
<g>
	<g>
		<path class="st0" d="M34.9,0.9l21.6,12.5c1,0.6,1.8,1.4,2.4,2.4c0.6,1,0.9,2.1,0.9,3.2v25c0,1.1-0.3,2.3-0.9,3.2
			c-0.6,1-1.4,1.8-2.4,2.4L34.9,62c-1,0.6-2.1,0.9-3.2,0.9c-1.1,0-2.3-0.3-3.2-0.9L6.8,49.6c-1-0.6-1.8-1.4-2.4-2.4S3.5,45.1,3.5,44
			V19c0-1.1,0.3-2.3,0.9-3.2c0.6-1,1.4-1.8,2.4-2.4L28.4,0.9c1-0.6,2.1-0.9,3.2-0.9C32.8,0,33.9,0.3,34.9,0.9z"/>
		<g>
			<g>
				<g>
					<defs>
						<rect id="SVGID_1_" x="15.5" y="15.2" width="30.8" height="32.8"/>
					</defs>
					<clipPath id="SVGID_00000156554495387957799090000007605213904014289313_">
						<use xlink:href="#SVGID_1_"  style="overflow:visible;"/>
					</clipPath>
					<g style="clip-path:url(#SVGID_00000156554495387957799090000007605213904014289313_);">
						<path class="st2" d="M30.9,22.1c3.3,0,5.9-1.5,5.9-3.4s-2.6-3.4-5.9-3.4S25,16.8,25,18.7S27.6,22.1,30.9,22.1z"/>
						<path class="st2" d="M30.9,48c3.3,0,5.9-1.5,5.9-3.4s-2.6-3.4-5.9-3.4S25,42.7,25,44.6S27.6,48,30.9,48z"/>
						<path class="st2" d="M22.6,26.9c1.6-2.8,1.6-5.9,0-6.8c-1.6-1-4.3,0.6-5.9,3.4c-1.6,2.8-1.6,5.9,0,6.8S21,29.7,22.6,26.9z"/>
						<path class="st2" d="M45.1,39.8c1.6-2.8,1.6-5.9,0-6.8c-1.6-0.9-4.3,0.6-5.9,3.4c-1.6,2.8-1.6,5.9,0,6.8
							C40.8,44.2,43.4,42.6,45.1,39.8z"/>
						<path class="st2" d="M22.6,43.2c1.6-1,1.7-4,0-6.8c-1.6-2.8-4.3-4.3-5.9-3.4c-1.6,1-1.7,4,0,6.8C18.3,42.6,21,44.2,22.6,43.2z
							"/>
						<path class="st2" d="M45,30.3c1.6-0.9,1.7-4,0-6.8c-1.6-2.8-4.3-4.4-5.9-3.4c-1.6,0.9-1.7,4,0,6.8
							C40.7,29.7,43.4,31.2,45,30.3z"/>
					</g>
				</g>
			</g>
		</g>
	</g>
</g>
</svg>
