<?xml version="1.0" encoding="utf-8"?>
<!-- Generator: Adobe Illustrator 26.5.0, SVG Export Plug-In . SVG Version: 6.00 Build 0)  -->
<svg version="1.1" id="Layer_1" xmlns="http://www.w3.org/2000/svg" xmlns:xlink="http://www.w3.org/1999/xlink" x="0px" y="0px"
	 viewBox="0 0 63 63" style="enable-background:new 0 0 63 63;" xml:space="preserve">
<style type="text/css">
	.st0{display:none;fill:#3C3D3F;fill-opacity:0.12;}
	.st1{display:none;fill:#FFFFFF;}
	.st2{fill-rule:evenodd;clip-rule:evenodd;fill:url(#SVGID_1_);}
	.st3{fill:#FFFFFF;}
</style>
<g>
	<path class="st0" d="M-2.9-18.6h152.2c8.9,0,16.2,7.3,16.2,16.2v69.6c0,8.9-7.3,16.2-16.2,16.2H-2.9c-9,0-16.2-7.2-16.2-16.2V-2.4
		C-19.1-11.4-11.9-18.6-2.9-18.6z"/>
	<path class="st1" d="M83.9,42.9V19.3h14.8v3.1H87.4v7.2h10.5v3.1H87.4v7.2h11.4V43L83.9,42.9L83.9,42.9z M102,22.4v-3.1h18.3v3.1
		h-7.4v20.5h-3.6V22.4H102z M142.5,27h-3.6c-0.1-0.8-0.4-1.4-0.8-2c-0.4-0.6-0.8-1.1-1.4-1.5c-0.5-0.4-1.2-0.7-1.8-0.9
		c-0.7-0.2-1.4-0.3-2.1-0.3c-1.4,0-2.6,0.3-3.7,1c-1.1,0.7-1.9,1.7-2.5,3s-0.9,2.9-0.9,4.8s0.3,3.5,0.9,4.9c0.6,1.3,1.5,2.3,2.5,3
		c1.1,0.7,2.3,1,3.6,1c0.7,0,1.5-0.1,2.1-0.3c0.7-0.2,1.3-0.5,1.8-0.9s1-0.9,1.4-1.5s0.6-1.3,0.8-2h3.6c-0.2,1.2-0.6,2.2-1.1,3.2
		s-1.2,1.8-2.1,2.5c-0.9,0.7-1.8,1.2-2.9,1.6c-1.1,0.4-2.3,0.6-3.6,0.6c-2,0-3.9-0.5-5.5-1.5s-2.9-2.4-3.8-4.2s-1.4-4-1.4-6.5
		s0.5-4.7,1.4-6.5s2.2-3.2,3.8-4.2c1.6-1,3.4-1.5,5.5-1.5c1.3,0,2.4,0.2,3.5,0.5c1.1,0.4,2.1,0.9,2.9,1.6c0.9,0.7,1.6,1.5,2.2,2.5
		C142,24.6,142.3,25.7,142.5,27z"/>
	
		<linearGradient id="SVGID_1_" gradientUnits="userSpaceOnUse" x1="63.379" y1="1076.0946" x2="-0.1819" y2="1019.8494" gradientTransform="matrix(1 0 0 1 0 -1016)">
		<stop  offset="0" style="stop-color:#58D98C"/>
		<stop  offset="1" style="stop-color:#599270"/>
	</linearGradient>
	<path class="st2" d="M34.3,1.1l21.6,12.4c1,0.6,1.8,1.4,2.4,2.4c0.6,1,0.9,2.1,0.9,3.2V44c0,1.1-0.3,2.3-0.9,3.2
		c-0.6,1-1.4,1.8-2.4,2.4L34.3,62.1c-1,0.6-2.1,0.9-3.2,0.9c-1.1,0-2.3-0.3-3.2-0.9L6.3,49.7c-1-0.6-1.8-1.4-2.4-2.4
		c-0.6-1-0.9-2.1-0.9-3.2v-25c0-1.1,0.3-2.3,0.9-3.2c0.6-1,1.4-1.8,2.4-2.4L27.8,1.1c1-0.6,2.1-0.9,3.3-0.9
		C32.2,0.2,33.3,0.5,34.3,1.1L34.3,1.1z"/>
	<path class="st3" d="M21.7,29.9l9.5-4l9.3,4.1l-9.3-14.6L21.7,29.9L21.7,29.9z M21.8,34.4l9.5,5.5l9.7-5.5l-9.6,13.4L21.8,34.4
		L21.8,34.4z"/>
	<path class="st3" d="M31.3,27.8L21.4,32l9.9,5.5l9.7-5.4"/>
</g>
</svg>
