<?xml version="1.0" encoding="utf-8"?>
<!-- Generator: Adobe Illustrator 26.5.0, SVG Export Plug-In . SVG Version: 6.00 Build 0)  -->
<svg version="1.1" id="Layer_1" xmlns="http://www.w3.org/2000/svg" xmlns:xlink="http://www.w3.org/1999/xlink" x="0px" y="0px"
	 viewBox="0 0 63 63" style="enable-background:new 0 0 63 63;" xml:space="preserve">
<style type="text/css">
	.st0{display:none;fill:#3C3D3F;fill-opacity:0.12;}
	.st1{display:none;fill:#FFFFFF;}
	.st2{display:none;fill-rule:evenodd;clip-rule:evenodd;fill:url(#SVGID_1_);}
	.st3{fill-rule:evenodd;clip-rule:evenodd;fill:url(#SVGID_00000143597796445817455400000006907894508306161053_);}
	.st4{opacity:0.6;fill:#010101;enable-background:new    ;}
	.st5{opacity:0.45;fill:#010101;enable-background:new    ;}
	.st6{opacity:0.8;fill:#010101;enable-background:new    ;}
</style>
<g>
	<path class="st0" d="M-2.8-18.8h152.2c8.9,0,16.2,7.3,16.2,16.2V67c0,8.9-7.3,16.2-16.2,16.2H-2.8C-11.8,83.2-19,76-19,67V-2.6
		C-19-11.6-11.8-18.8-2.8-18.8z"/>
	<path class="st1" d="M84,42.7V19.1h14.8v3.1H87.5v7.2H98v3.1H87.5v7.2h11.4v3.1L84,42.7L84,42.7z M102.1,22.2v-3.1h18.3v3.1H113
		v20.5h-3.6V22.2H102.1z M142.6,26.8H139c-0.1-0.8-0.4-1.4-0.8-2c-0.4-0.6-0.8-1.1-1.4-1.5c-0.5-0.4-1.2-0.7-1.8-0.9
		c-0.7-0.2-1.4-0.3-2.1-0.3c-1.4,0-2.6,0.3-3.7,1c-1.1,0.7-1.9,1.7-2.5,3s-0.9,2.9-0.9,4.8s0.3,3.5,0.9,4.9c0.6,1.3,1.5,2.3,2.5,3
		c1.1,0.7,2.3,1,3.6,1c0.7,0,1.5-0.1,2.1-0.3c0.7-0.2,1.3-0.5,1.8-0.9s1-0.9,1.4-1.5s0.6-1.3,0.8-2h3.6c-0.2,1.2-0.6,2.2-1.1,3.2
		s-1.2,1.8-2.1,2.5c-0.9,0.7-1.8,1.2-2.9,1.6c-1.1,0.4-2.3,0.6-3.6,0.6c-2,0-3.9-0.5-5.5-1.5c-1.6-1-2.9-2.4-3.8-4.2s-1.4-4-1.4-6.5
		s0.5-4.7,1.4-6.5s2.2-3.2,3.8-4.2s3.4-1.5,5.5-1.5c1.3,0,2.4,0.2,3.5,0.5c1.1,0.4,2.1,0.9,2.9,1.6c0.9,0.7,1.6,1.5,2.2,2.5
		C142.1,24.4,142.4,25.5,142.6,26.8z"/>
	
		<linearGradient id="SVGID_1_" gradientUnits="userSpaceOnUse" x1="63.4377" y1="1075.9272" x2="-0.1232" y2="1019.682" gradientTransform="matrix(1 0 0 1 0 -1016)">
		<stop  offset="0" style="stop-color:#58D98C"/>
		<stop  offset="1" style="stop-color:#599270"/>
	</linearGradient>
	<path class="st2" d="M34.4,0.9L56,13.3c1,0.6,1.8,1.4,2.4,2.4c0.6,1,0.9,2.1,0.9,3.2v24.9c0,1.1-0.3,2.3-0.9,3.2
		c-0.6,1-1.4,1.8-2.4,2.4L34.4,61.9c-1,0.6-2.1,0.9-3.2,0.9c-1.1,0-2.3-0.3-3.2-0.9L6.4,49.5c-1-0.6-1.8-1.4-2.4-2.4
		S3.1,45,3.1,43.9v-25c0-1.1,0.3-2.3,0.9-3.2c0.6-1,1.4-1.8,2.4-2.4L27.9,0.9C28.9,0.3,30,0,31.2,0C32.3,0,33.4,0.3,34.4,0.9
		L34.4,0.9z"/>
	<path class="st1" d="M21.8,29.7l9.5-4l9.3,4.1l-9.3-14.6L21.8,29.7L21.8,29.7z M21.9,34.2l9.5,5.5l9.7-5.5l-9.6,13.4L21.9,34.2
		L21.9,34.2z"/>
	<path class="st1" d="M31.4,27.6l-9.9,4.2l9.9,5.5l9.7-5.4"/>
</g>
<linearGradient id="SVGID_00000020359267599366699430000017983861730841258905_" gradientUnits="userSpaceOnUse" x1="-12.7923" y1="1023.3511" x2="73.7605" y2="1070.5404" gradientTransform="matrix(1 0 0 1 0 -1016)">
	<stop  offset="0" style="stop-color:#FFFFFF"/>
	<stop  offset="1" style="stop-color:#D6DAFF"/>
</linearGradient>
<path style="fill-rule:evenodd;clip-rule:evenodd;fill:url(#SVGID_00000020359267599366699430000017983861730841258905_);" d="
	M34.8,0.9l21.6,12.5c1,0.6,1.8,1.4,2.4,2.4c0.6,1,0.9,2.1,0.9,3.3v25c0,1.1-0.3,2.3-0.9,3.3c-0.6,1-1.4,1.8-2.4,2.4L34.8,62.1
	c-1,0.6-2.1,0.9-3.3,0.9c-1.1,0-2.3-0.3-3.3-0.9L6.6,49.6c-1-0.6-1.8-1.4-2.4-2.4s-0.9-2.1-0.9-3.3V19c0-1.1,0.3-2.3,0.9-3.3
	s1.4-1.8,2.4-2.4L28.3,0.9c1-0.6,2.1-0.9,3.3-0.9C32.7,0,33.8,0.3,34.8,0.9z"/>
<path class="st4" d="M31.4,27.2l-10.3,4.5l10.3,5.9l10.3-5.9L31.4,27.2z"/>
<path class="st5" d="M21.1,31.8l10.3,5.9V15.2L21.1,31.8z"/>
<path class="st6" d="M31.4,15.2v22.5l10.3-5.9L31.4,15.2L31.4,15.2z"/>
<path class="st5" d="M21.1,33.6l10.3,14.1v-8.2L21.1,33.6z"/>
<path class="st6" d="M31.4,39.6v8.2l10.3-14.1L31.4,39.6L31.4,39.6z"/>
</svg>
