<?xml version="1.0" encoding="utf-8"?>
<!-- Generator: Adobe Illustrator 26.5.0, SVG Export Plug-In . SVG Version: 6.00 Build 0)  -->
<svg version="1.1" id="Layer_1" xmlns="http://www.w3.org/2000/svg" xmlns:xlink="http://www.w3.org/1999/xlink" x="0px" y="0px"
	 viewBox="0 0 63 63" style="enable-background:new 0 0 63 63;" xml:space="preserve">
<style type="text/css">
	.st0{fill:#13B5EC;}
	.st1{fill-rule:evenodd;clip-rule:evenodd;fill:#FFFFFF;}
</style>
<path class="st0" d="M2.7,17.4c0-2.5,1.4-4.7,3.6-5.8L28.8,0.7c1.8-0.9,3.8-0.9,5.6,0l22.5,10.9c2.2,1.1,3.6,3.3,3.6,5.8V47
	c0,2.6-1.5,4.9-3.9,5.9l-22.5,9.6c-1.6,0.7-3.4,0.7-5.1,0L6.6,52.9c-2.4-1-3.9-3.3-3.9-5.9C2.7,47,2.7,17.4,2.7,17.4z"/>
<path class="st1" d="M33.5,27.5l5.4-3.1v6.3L33.5,27.5z M38.9,41l-7.2,4.2L24.5,41v-7.3l7.2,4.2l7.2-4.2V41z M24.5,24.3l5.4,3.1
	l-5.4,3.1V24.3z M32.6,29l5.4,3.1l-5.4,3.1V29z M30.8,35.3l-5.4-3.1l5.4-3.1V35.3z M38,22.8l-6.3,3.6l-6.3-3.6l6.3-3.7L38,22.8z
	 M22.7,22.2v19.6l9,5.1l9-5.1V22.2l-9-5.1L22.7,22.2z"/>
</svg>
