<?xml version="1.0" encoding="utf-8"?>
<!-- Generator: Adobe Illustrator 26.5.0, SVG Export Plug-In . SVG Version: 6.00 Build 0)  -->
<svg version="1.1" id="Layer_1" xmlns="http://www.w3.org/2000/svg" xmlns:xlink="http://www.w3.org/1999/xlink" x="0px" y="0px"
	 viewBox="0 0 63 63" style="enable-background:new 0 0 63 63;" xml:space="preserve">
<style type="text/css">
	.st0{fill-rule:evenodd;clip-rule:evenodd;fill:url(#SVGID_1_);}
	.st1{fill-rule:evenodd;clip-rule:evenodd;fill:#FFFFFF;}
</style>
<linearGradient id="SVGID_1_" gradientUnits="userSpaceOnUse" x1="66.7591" y1="1085.7872" x2="-22.8066" y2="988.5294" gradientTransform="matrix(1 0 0 1 0 -1016)">
	<stop  offset="0" style="stop-color:#4A6EC3"/>
	<stop  offset="1" style="stop-color:#0033AD"/>
</linearGradient>
<path class="st0" d="M34.7,0.9l21.7,12.4c1,0.6,1.8,1.4,2.4,2.4s0.9,2.1,0.9,3.2v25c0,1.1-0.3,2.3-0.9,3.2c-0.6,1-1.4,1.8-2.4,2.4
	L34.7,62.1c-1,0.6-2.1,0.9-3.2,0.9s-2.3-0.3-3.2-0.9L6.6,49.7c-1-0.6-1.8-1.4-2.4-2.4S3.3,45.1,3.3,44V19c0-1.1,0.3-2.3,0.9-3.2
	c0.6-1,1.4-1.8,2.4-2.4L28.3,0.9c1-0.6,2.1-0.9,3.2-0.9C32.6,0,33.8,0.3,34.7,0.9z"/>
<path class="st1" d="M32.4,31.4l-2.6,8.8h13.9c0.5,0,0.7,0.3,0.7,0.7v0.2l-1.2,4.2c0,0.2-0.2,0.3-0.3,0.5c-0.1,0.1-0.3,0.2-0.6,0.2
	H21l3.6-12.2L20.6,35l0.9-2.8l3.9-1.2l5.1-17c0-0.2,0.2-0.3,0.3-0.5c0.1-0.1,0.3-0.2,0.6-0.2h5.4c0.5,0,0.7,0.3,0.7,0.7v0.2
	l-4.3,14.4l3.9-1.2l-0.8,2.9L32.4,31.4z"/>
</svg>
