<?xml version="1.0" encoding="utf-8"?>
<!-- Generator: Adobe Illustrator 26.5.0, SVG Export Plug-In . SVG Version: 6.00 Build 0)  -->
<svg version="1.1" id="Layer_1" xmlns="http://www.w3.org/2000/svg" xmlns:xlink="http://www.w3.org/1999/xlink" x="0px" y="0px"
	 viewBox="0 0 63 63" style="enable-background:new 0 0 63 63;" xml:space="preserve">
<style type="text/css">
	.st0{fill-rule:evenodd;clip-rule:evenodd;fill:#FFFFFF;}
	.st1{fill:#FFFFFF;}
	.st2{fill:#8247E5;}
</style>
<path class="st0" d="M32,32l-2.3,7.8H42c0.4,0,0.6,0.3,0.6,0.6v0.2l-1.1,3.7c0,0.2-0.2,0.3-0.3,0.4c-0.1,0.1-0.3,0.2-0.5,0.2H21.9
	l3.2-10.8l-3.5,1.1l0.8-2.5l3.5-1.1l4.5-15.1c0-0.2,0.2-0.3,0.3-0.4c0.1-0.1,0.3-0.2,0.5-0.2H36c0.4,0,0.6,0.3,0.6,0.6v0.2
	l-3.8,12.8l3.5-1.1L35.6,31L32,32z"/>
<path class="st1" d="M34.4,0.9L56,13.3c1,0.6,1.8,1.4,2.4,2.4c0.6,1,0.9,2.1,0.9,3.2v24.9c0,1.1-0.3,2.3-0.9,3.2
	c-0.6,1-1.4,1.8-2.4,2.4L34.4,61.9c-1,0.6-2.1,0.9-3.2,0.9c-1.1,0-2.3-0.3-3.2-0.9L6.4,49.5c-1-0.6-1.8-1.4-2.4-2.4S3.1,45,3.1,43.9
	v-25c0-1.1,0.3-2.3,0.9-3.2c0.6-1,1.4-1.8,2.4-2.4L28,0.9C29,0.3,30.1,0,31.2,0C32.3,0,33.5,0.3,34.4,0.9z"/>
<path class="st2" d="M38.6,26.8c-0.5-0.3-1.2-0.3-1.7,0l-4,2.4l-2.7,1.5l-4,2.4c-0.5,0.3-1.2,0.3-1.7,0l-3.1-1.9
	c-0.5-0.3-0.9-0.9-0.9-1.5v-3.6c0-0.6,0.3-1.2,0.9-1.5l3.1-1.8c0.5-0.3,1.2-0.3,1.7,0l3.1,1.9c0.5,0.3,0.9,0.9,0.9,1.5v2.4l2.7-1.6
	v-2.4c0-0.6-0.3-1.2-0.9-1.5l-5.8-3.4c-0.5-0.3-1.2-0.3-1.7,0l-5.9,3.5c-0.6,0.3-0.9,0.9-0.9,1.4v6.8c0,0.6,0.3,1.2,0.9,1.5l5.8,3.4
	c0.5,0.3,1.2,0.3,1.7,0l4-2.3l2.7-1.6l4-2.3c0.5-0.3,1.2-0.3,1.7,0l3.1,1.8c0.5,0.3,0.9,0.9,0.9,1.5V37c0,0.6-0.3,1.2-0.9,1.5
	l-3,1.8c-0.5,0.3-1.2,0.3-1.7,0l-3.1-1.8c-0.5-0.3-0.9-0.9-0.9-1.5v-2.3l-2.7,1.6v2.4c0,0.6,0.3,1.2,0.9,1.5l5.8,3.4
	c0.5,0.3,1.2,0.3,1.7,0l5.8-3.4c0.5-0.3,0.9-0.9,0.9-1.5v-6.8c0-0.6-0.3-1.2-0.9-1.5L38.6,26.8z"/>
</svg>
