<?xml version="1.0" encoding="utf-8"?>
<!-- Generator: Adobe Illustrator 26.5.0, SVG Export Plug-In . SVG Version: 6.00 Build 0)  -->
<svg version="1.1" xmlns="http://www.w3.org/2000/svg" xmlns:xlink="http://www.w3.org/1999/xlink" x="0px" y="0px"
	 viewBox="0 0 63 63" style="enable-background:new 0 0 63 63;" xml:space="preserve">
<style type="text/css">
	.st0{display:none;fill:#3C3D3F;fill-opacity:0.12;}
	.st1{fill-rule:evenodd;clip-rule:evenodd;fill:url(#SVGID_1_);}
	.st2{fill:#FFFFFF;filter:url(#Adobe_OpacityMaskFilter);}
	.st3{mask:url(#mask0_128_83_00000036216820977955123050000009982412120771773316_);}
	.st4{fill-rule:evenodd;clip-rule:evenodd;fill:#FFFFFF;}
	.st5{fill:#FFFFFF;filter:url(#Adobe_OpacityMaskFilter_00000011000409116667346830000011665036592868978084_);}
	.st6{mask:url(#mask1_128_83_00000145750061142070340030000010204911285525784217_);}
	.st7{fill-rule:evenodd;clip-rule:evenodd;fill:#FBA10B;}
	.st8{fill-rule:evenodd;clip-rule:evenodd;fill:#060505;}
	.st9{display:none;fill:#FFFFFF;}
</style>
<g id="Layer_1">
	<g>
		<g>
			<path class="st0" d="M-9.1-18.8h313.2c9,0,16.2,7.3,16.2,16.2v69.8c0,9-7.3,16.2-16.2,16.2H-9.1c-9,0-16.2-7.3-16.2-16.2V-2.6
				C-25.3-11.6-18-18.8-9.1-18.8z"/>
			
				<linearGradient id="SVGID_1_" gradientUnits="userSpaceOnUse" x1="73.9096" y1="-3.2971" x2="-0.3902" y2="59.4618" gradientTransform="matrix(1 0 0 -1 0 64)">
				<stop  offset="0" style="stop-color:#7A0100"/>
				<stop  offset="1" style="stop-color:#F30504"/>
			</linearGradient>
			<path class="st1" d="M34.8,0.9l21.6,12.5c1,0.6,1.8,1.4,2.4,2.4c0.6,1,0.9,2.1,0.9,3.2v25c0,1.1-0.3,2.3-0.9,3.2
				c-0.6,1-1.4,1.8-2.4,2.4L34.8,62.1c-1,0.6-2.1,0.9-3.2,0.9c-1.1,0-2.3-0.3-3.2-0.9L6.7,49.6c-1-0.6-1.8-1.4-2.4-2.4
				c-0.6-1-0.9-2.1-0.9-3.2V19c0-1.1,0.3-2.3,0.9-3.2c0.6-1,1.4-1.8,2.4-2.4L28.3,0.9c1-0.6,2.1-0.9,3.2-0.9
				C32.7,0,33.8,0.3,34.8,0.9z"/>
			<defs>
				<filter id="Adobe_OpacityMaskFilter" filterUnits="userSpaceOnUse" x="18.5" y="19.7" width="26" height="25.5">
					<feColorMatrix  type="matrix" values="1 0 0 0 0  0 1 0 0 0  0 0 1 0 0  0 0 0 1 0"/>
				</filter>
			</defs>
			
				<mask maskUnits="userSpaceOnUse" x="18.5" y="19.7" width="26" height="25.5" id="mask0_128_83_00000036216820977955123050000009982412120771773316_">
				<path class="st2" d="M18.5,19.7h26v25.5h-26V19.7z"/>
			</mask>
			<g class="st3">
				<path class="st4" d="M35.7,33.3C35.8,33.3,35.9,33.3,35.7,33.3C35.8,33.3,35.7,33.3,35.7,33.3C35.6,33.3,35.7,33.3,35.7,33.3
					L35.7,33.3z M39.4,30C39.5,30,39.5,30,39.4,30C39.4,30.1,39.4,30.1,39.4,30C39.3,30,39.3,30,39.4,30z M19.6,25.5l0.1,0.4
					c0.1,0.4,0.3,0.9,0.5,1.6c0.2,0.7,0.2,0.7,0,1.2L20,29.4c-0.2,0.5-0.4,1-0.6,1.5c0,0.1-0.2,0.7-0.4,1.3
					c-0.1,0.4-0.3,1.5-0.4,2.1c-0.2,1.9-0.1,2.7,0.5,3.6c0,0,0.1,0.1,0.1,0.1c0,0,0.1,0.2,0.2,0.3c0.1,0.1,0.1,0.2,0.1,0.2
					c0,0,0.4,0.5,0.5,0.7c0.8,0.9,1.1,1.2,2.1,2c0.5,0.4,1.6,1.2,1.7,1.2c0,0,0.1,0.1,0.3,0.2c0.1,0.1,0.3,0.2,0.3,0.2
					c0,0,0.1,0,0.1,0.1c0.6,0.4,2.6,1.3,3.4,1.6c0.4,0.1,0.8,0.3,1.2,0.4c1.2,0.3,2.5,0.4,3.5,0.3c0.1,0,0.3,0,0.4-0.1
					c0.1,0,0.2,0,0.3,0c0.1,0,0.3-0.1,0.4-0.1c0.6-0.1,0.8-0.2,0.9-0.2c0,0,0.1,0,0.1,0c0.1,0,0.5-0.1,0.6-0.2c0,0,0.1,0,0.1,0
					c0.1,0,1-0.4,1.4-0.6c1.2-0.6,2.4-1.2,3.5-2c0.4-0.3,1.4-1.1,1.6-1.4l0.3-0.4c0.5-0.6,0.7-0.8,1.1-1.4c0.3-0.4,0.7-1.1,0.7-1.4
					c0-0.1,0.1-0.2,0.1-0.3c0.1-0.2,0.1-0.3,0.2-0.7c0-0.1,0-0.5,0-0.8c0-1.2-0.2-2.5-0.4-3.3L44,31.8c-0.2-0.9-0.6-1.8-1.1-2.8
					c-0.1-0.2-0.2-0.4-0.3-0.7l-0.1-0.1l0.2-0.6c0.3-0.9,0.6-1.9,0.8-2.9c0-0.2,0.1-0.3,0.1-0.5c-1.3-1.9-3-3.4-5-4.5
					c0,0-0.1,0.1-0.1,0.1c-0.4,0.4-0.8,0.9-1.2,1.4c-0.1,0.1-0.3,0.3-0.4,0.5c-0.2,0.2-0.3,0.4-0.3,0.4l-0.4-0.1
					c-0.2-0.1-0.5-0.1-0.7-0.2l-0.4-0.1c-0.2-0.1-0.5-0.1-0.7-0.1c-0.8-0.2-2.3-0.3-3.1-0.3c-1.3,0.1-2,0.1-3.1,0.3
					c-0.3,0.1-1.4,0.4-1.6,0.5c-0.1,0-0.1,0-0.5-0.3c-0.2-0.2-0.6-0.6-0.9-0.9c-0.5-0.5-0.8-0.8-0.9-1c-2,1.2-3.8,2.8-5.1,4.8
					C19.4,24.9,19.5,25.2,19.6,25.5"/>
			</g>
			<defs>
				
					<filter id="Adobe_OpacityMaskFilter_00000015344212350058792440000011797993316020696992_" filterUnits="userSpaceOnUse" x="18.5" y="16.9" width="26" height="20.8">
					<feColorMatrix  type="matrix" values="1 0 0 0 0  0 1 0 0 0  0 0 1 0 0  0 0 0 1 0"/>
				</filter>
			</defs>
			
				<mask maskUnits="userSpaceOnUse" x="18.5" y="16.9" width="26" height="20.8" id="mask1_128_83_00000145750061142070340030000010204911285525784217_">
				<path style="fill:#FFFFFF;filter:url(#Adobe_OpacityMaskFilter_00000015344212350058792440000011797993316020696992_);" d="
					M18.5,16.9h26v20.8h-26V16.9z"/>
			</mask>
			<g class="st6">
				<path class="st7" d="M24.3,30.1c0.3,0.1,0.5,0.1,0.7,0.2c0.4,0.2,0.9,0.4,1.3,0.6c0.2,0.1,0.5,0.3,0.6,0.3
					c1.1,0.6,1.8,1.3,1.8,1.7c0,0.7-3.7-0.1-4.9-1.1c-0.4-0.3-0.4-1-0.2-1.7C23.7,30,23.8,30,24.3,30.1L24.3,30.1z M39.6,30.2
					c0.1,0.3,0.1,0.4,0.1,0.9l0,0.5l-0.2,0.2c-0.4,0.4-0.9,0.7-1.7,0.9c-0.4,0.2-0.6,0.2-1.3,0.4c-0.5,0.1-1.3,0.2-1.7,0.1l-0.2,0
					l0-0.2c0-0.4,0.4-0.9,1.3-1.4c0.9-0.6,1.4-0.9,2.4-1.3c0.3-0.2,0.9-0.3,1.2-0.3l0.2,0L39.6,30.2z M37.6,27
					c1,0.3,1.6,1.5,0.9,2.1c-0.4,0.4-2.5,0.3-2.8-0.1c-0.1-0.2-0.2-0.5-0.2-0.6c0,0,0-0.1,0-0.1c0-0.1,0.2-0.4,0.4-0.6
					C36.5,27,37.1,26.8,37.6,27L37.6,27z M26,27c1,0.3,1.7,1.6,1.1,2c-0.3,0.3-1.5,0.4-2.4,0.2c-0.8-0.1-0.9-1.2-0.2-1.9
					C25,27,25.5,26.8,26,27z M19.6,16.9c-0.6,0.4-0.9,2.3-0.8,3.9l0.1,0.7c0.1,0.7,0.1,1.4,0.2,1.9c0,0.1,0.1,0.3,0.1,0.4
					c0,0.1,0,0.2,0,0.2c0,0,0,0.1,0.1,0.2c0.1,0.4,0.2,0.8,0.3,1.2l0.1,0.4c0.1,0.4,0.3,0.9,0.5,1.6c0.2,0.7,0.2,0.7,0,1.2L20,29.4
					c-0.2,0.5-0.4,1-0.6,1.5c-0.1,0.4-0.3,0.9-0.4,1.3c-0.1,0.2-0.2,0.9-0.3,1.5c-0.1,0.5-0.2,1.7-0.2,1.7c0.1,0,0.2,0,0.3,0
					c0.5-0.1,0.8-0.1,1.5-0.1c0.8,0,1.2,0,1.9,0.2c1.2,0.3,2.6,1.1,3.6,2.1c0.2,0.2,0.2,0.2,0.3,0c0.9-2.1,2-3.2,3.6-3.9
					c1-0.4,2.4-0.5,3.6-0.2c1.6,0.4,2.9,1.7,3.7,3.4l0.1,0.3c0,0,0.1,0.2,0.1,0.3c0,0.1,0.1,0.2,0.1,0.3c0,0,0.1-0.1,0.2-0.2
					c0.8-0.7,1.5-1.2,2.5-1.7c0,0,0.1,0,0.2-0.1c0,0,0.1,0,0.1,0c0.3-0.1,0.9-0.3,1.5-0.4c0.6-0.1,2.4-0.1,2.7,0.1
					c0.1,0,0.1-0.7-0.1-1.8c-0.1-0.5-0.1-0.9-0.2-1.4L44,31.8c-0.2-0.9-0.6-1.8-1.1-2.9c-0.1-0.2-0.2-0.4-0.3-0.7l-0.1-0.1l0.2-0.6
					c0.3-0.9,0.6-1.9,0.8-2.9c0.1-0.3,0.1-0.6,0.2-0.7c0-0.1,0.1-0.3,0.2-0.7c0.2-0.7,0.2-1.2,0.3-1.7l0.1-0.7c0-0.4,0.1-1.9,0-2.1
					c-0.1-0.5-0.1-0.6-0.2-0.9c-0.2-0.6-0.4-1-0.6-1l-0.3,0c-0.1,0-0.4,0.1-0.8,0.2c-1,0.3-2.6,1.3-3.5,2.2
					c-0.1,0.1-0.1,0.1-0.2,0.1c0,0,0,0,0,0c0,0,0,0,0,0c0,0.1-0.1,0.1-0.2,0.2c-0.4,0.4-0.8,0.9-1.2,1.4l-0.4,0.5
					c-0.1,0.1-0.2,0.3-0.3,0.4l-0.4-0.1c-0.2-0.1-0.5-0.1-0.7-0.2l-0.4-0.1c-0.2-0.1-0.5-0.1-0.7-0.1c-0.8-0.2-2.3-0.3-3.1-0.3
					c-1.3,0.1-2,0.1-3.1,0.3c-0.3,0.1-1.4,0.4-1.6,0.5c-0.1,0-0.1,0-0.5-0.3c-0.2-0.2-0.6-0.6-0.9-0.9c-0.9-1-1.1-1.1-1-1.1
					c0,0,0,0,0,0c0,0-0.1-0.1-0.2-0.2c-1.2-1.1-2.1-1.8-2.9-2.2C20.6,16.9,19.8,16.8,19.6,16.9z"/>
			</g>
			<path class="st8" d="M30.5,40.7c0,0.1,0.1,0.2,0.3,0.3l0.2,0.1l0.1-0.1c0.2-0.2,0.3-0.1,0.5,0.2c0.1,0.2,0.3,0.2,0.6-0.2
				c0.1-0.2,0.1-0.2,0.3,0l0.1,0.1l0.1-0.1c0.1-0.1,0.2-0.1,0.2-0.3l0-0.1h-2.5L30.5,40.7z M30.5,35.3C30,35.4,29.9,36,30,36.8
				c0.1,0.6,0.8,1.3,1.7,1.6c0.1,0,0.1,0.1,0.1,0.5v0.5l-0.1,0.1c-0.1,0.1-0.2,0.1-0.2,0.2l-0.1,0.2c-0.1,0.1-1.2,0-1.7-0.1
				c-0.3,0-1-0.1-1.1,0c0,0,0,0.1,0.1,0.1c0.1,0.2,0.2,0.3,0.3,0.6l0.1,0.3H29c0.1,0,0.1,0,0.2,0.3c0.1,0.2,0.3,0.6,0.3,0.7l0.1,0.1
				l0.1-0.1c0.1-0.1,0.1-0.2,0.1-0.8l0-0.7l0.2,0c0.1,0,0.3,0,0.5,0c1,0.1,2,0.1,3,0c0.1,0,0.4,0,0.5,0l0.2,0l0,0.6
				c0,0.6,0,0.6,0.1,0.8c0.1,0.1,0.1,0.2,0.1,0.1c0,0,0-0.1,0-0.1c0-0.1,0.1-0.3,0.2-0.5l0.1-0.4l0.2-0.1l0.2-0.1l0.1-0.4
				c0.1-0.2,0.1-0.4,0.1-0.5l0-0.1h-0.5c-0.4,0-0.5,0-0.6,0.1c-0.2,0.1-0.5,0.1-1,0.1l-0.5,0l-0.1-0.2c-0.1-0.1-0.2-0.2-0.2-0.2
				l-0.1,0l0-0.5l0-0.5l0.1-0.1c1-0.5,1.3-0.9,1.3-1.9c0-0.8-0.1-1-0.6-1.1C32.9,35.2,30.7,35.2,30.5,35.3z M39.1,30
				c-0.6,0.1-1.4,0.5-2.5,1.1c-1.4,0.8-1.9,1.3-1.9,1.9l0,0.2l0.4,0c1.5,0.1,3.6-0.6,4.5-1.4l0.2-0.2v-0.5c0-0.5,0-0.6-0.1-0.9
				l0-0.2l-0.2,0C39.2,30,39.1,30,39.1,30z M23.7,30.1c-0.2,0.2-0.3,1-0.2,1.4l0,0.2c0,0.2,0.5,0.6,1.1,0.8c1.1,0.6,3.3,1,3.9,0.8
				l0.2-0.1l0-0.2c0-0.4-0.4-0.8-1.3-1.4c-0.1-0.1-0.2-0.1-0.3-0.2c-0.1-0.1-0.2-0.1-0.4-0.2c-0.7-0.4-1.5-0.8-1.9-1
				C24.3,30.1,23.8,30,23.7,30.1z"/>
			<path class="st9" d="M98.9,25.4c-0.1-1.1-0.6-1.9-1.5-2.5c-0.9-0.6-2-0.9-3.4-0.9c-1,0-1.8,0.2-2.5,0.5c-0.7,0.3-1.3,0.7-1.7,1.2
				c-0.4,0.5-0.6,1.1-0.6,1.8c0,0.6,0.1,1,0.4,1.5c0.3,0.4,0.6,0.8,1.1,1c0.4,0.3,0.9,0.5,1.4,0.7c0.5,0.2,1,0.3,1.4,0.4l2.3,0.6
				c0.8,0.2,1.5,0.4,2.3,0.8c0.8,0.3,1.5,0.7,2.2,1.2c0.7,0.5,1.2,1.2,1.6,1.9c0.4,0.8,0.6,1.7,0.6,2.7c0,1.3-0.3,2.5-1,3.6
				c-0.7,1-1.7,1.9-3,2.5c-1.3,0.6-2.9,0.9-4.7,0.9c-1.8,0-3.3-0.3-4.6-0.8c-1.3-0.6-2.3-1.4-3-2.4c-0.7-1-1.1-2.3-1.2-3.7h3.6
				c0.1,0.9,0.3,1.6,0.8,2.1c0.5,0.6,1.1,1,1.9,1.3c0.8,0.3,1.6,0.4,2.5,0.4c1,0,1.9-0.2,2.7-0.5c0.8-0.3,1.4-0.8,1.9-1.3
				c0.5-0.6,0.7-1.3,0.7-2c0-0.7-0.2-1.3-0.6-1.7c-0.4-0.4-0.9-0.8-1.6-1.1c-0.7-0.3-1.4-0.6-2.3-0.8l-2.8-0.8
				c-1.9-0.5-3.4-1.3-4.5-2.3c-1.1-1-1.7-2.3-1.7-4c0-1.4,0.4-2.6,1.1-3.6c0.7-1,1.7-1.8,3-2.4c1.3-0.6,2.7-0.9,4.3-0.9
				c1.6,0,3,0.3,4.2,0.8c1.2,0.6,2.2,1.3,2.9,2.3c0.7,1,1.1,2.1,1.1,3.4H98.9z M106.6,42.8V19.2h3.6v10.3H122V19.2h3.6v23.7H122
				V32.5h-11.8v10.3H106.6z M134,19.2v23.7h-3.6V19.2H134z M138.9,42.8V19.2h8.7c1.7,0,3.1,0.3,4.2,0.8c1.1,0.5,1.9,1.3,2.5,2.2
				c0.5,0.9,0.8,2,0.8,3.2c0,1-0.2,1.8-0.5,2.5c-0.4,0.7-0.8,1.2-1.5,1.6c-0.6,0.4-1.3,0.7-2,0.9v0.2c0.8,0,1.6,0.3,2.3,0.8
				c0.8,0.5,1.4,1.1,1.9,2c0.5,0.9,0.7,1.9,0.7,3.1c0,1.2-0.3,2.3-0.9,3.3c-0.6,1-1.4,1.7-2.6,2.3c-1.2,0.6-2.7,0.8-4.5,0.8H138.9z
				 M142.5,39.8h5.2c1.7,0,2.9-0.3,3.7-1c0.7-0.7,1.1-1.5,1.1-2.5c0-0.7-0.2-1.4-0.6-2.1c-0.4-0.6-0.9-1.1-1.6-1.5
				c-0.7-0.4-1.5-0.6-2.5-0.6h-5.3V39.8z M142.5,29.4h4.8c0.8,0,1.5-0.2,2.2-0.5c0.6-0.3,1.2-0.7,1.5-1.3c0.4-0.6,0.6-1.2,0.6-2
				c0-1-0.3-1.8-1-2.5c-0.7-0.7-1.7-1-3.2-1h-4.9V29.4z M168.9,31c0-2.9,0.4-5.6,1.1-8c0.8-2.4,1.9-4.7,3.3-6.7h3.2
				c-0.6,0.8-1.1,1.7-1.6,2.8c-0.5,1.1-0.9,2.3-1.3,3.7c-0.4,1.3-0.7,2.7-0.9,4.1c-0.2,1.4-0.3,2.8-0.3,4.2c0,1.8,0.2,3.7,0.5,5.6
				c0.4,1.9,0.9,3.6,1.5,5.2c0.6,1.6,1.3,2.9,2.1,3.9h-3.2c-1.5-2.1-2.6-4.3-3.3-6.7C169.3,36.6,168.9,33.9,168.9,31z M180.1,42.8
				V19.2h14.8v3.1h-11.3v7.2h10.5v3.1h-10.5v7.2h11.4v3.1H180.1z M199.4,42.8V19.2h8.4c1.8,0,3.4,0.3,4.6,0.9
				c1.2,0.6,2.1,1.5,2.7,2.6c0.6,1.1,0.9,2.4,0.9,3.8c0,1.4-0.3,2.7-0.9,3.8c-0.6,1.1-1.5,1.9-2.7,2.6c-1.2,0.6-2.7,0.9-4.6,0.9
				h-6.4v-3.1h6.1c1.2,0,2.1-0.2,2.8-0.5c0.7-0.3,1.3-0.8,1.6-1.4c0.3-0.6,0.5-1.4,0.5-2.3c0-0.9-0.2-1.7-0.5-2.3
				c-0.3-0.7-0.9-1.2-1.6-1.5c-0.7-0.4-1.7-0.5-2.9-0.5H203v20.6H199.4z M211.1,32.2l5.8,10.7h-4.1l-5.7-10.7H211.1z M239.7,26.9
				h-3.6c-0.1-0.8-0.4-1.4-0.8-2c-0.4-0.6-0.8-1.1-1.4-1.5c-0.5-0.4-1.2-0.7-1.8-0.9c-0.7-0.2-1.4-0.3-2.1-0.3c-1.4,0-2.6,0.3-3.7,1
				c-1.1,0.7-1.9,1.7-2.5,3c-0.6,1.3-0.9,2.9-0.9,4.9c0,1.9,0.3,3.6,0.9,4.9c0.6,1.3,1.5,2.3,2.6,3c1.1,0.7,2.3,1,3.6,1
				c0.7,0,1.5-0.1,2.1-0.3c0.7-0.2,1.3-0.5,1.8-0.9c0.5-0.4,1-0.9,1.4-1.5c0.4-0.6,0.7-1.3,0.8-2l3.6,0c-0.2,1.2-0.6,2.2-1.1,3.2
				c-0.5,1-1.3,1.8-2.1,2.5c-0.9,0.7-1.8,1.2-2.9,1.6c-1.1,0.4-2.3,0.6-3.6,0.6c-2,0-3.9-0.5-5.5-1.5c-1.6-1-2.9-2.4-3.8-4.2
				c-0.9-1.8-1.4-4-1.4-6.5c0-2.5,0.5-4.7,1.4-6.5c0.9-1.8,2.2-3.2,3.8-4.2c1.6-1,3.4-1.5,5.5-1.5c1.3,0,2.4,0.2,3.5,0.5
				c1.1,0.4,2.1,0.9,2.9,1.6c0.9,0.7,1.6,1.5,2.2,2.5C239.1,24.5,239.5,25.6,239.7,26.9z M243.3,42.8v-2.6l8-8.3
				c0.9-0.9,1.6-1.7,2.1-2.4c0.6-0.7,1-1.3,1.3-2c0.3-0.6,0.4-1.3,0.4-2c0-0.8-0.2-1.5-0.6-2c-0.4-0.6-0.9-1-1.5-1.3
				c-0.6-0.3-1.4-0.5-2.2-0.5c-0.8,0-1.6,0.2-2.2,0.5c-0.6,0.3-1.1,0.8-1.5,1.5c-0.3,0.6-0.5,1.4-0.5,2.2h-3.4c0-1.4,0.3-2.7,1-3.8
				c0.7-1.1,1.6-1.9,2.7-2.5c1.2-0.6,2.5-0.9,3.9-0.9c1.5,0,2.8,0.3,3.9,0.9c1.1,0.6,2,1.4,2.7,2.4c0.6,1,1,2.1,1,3.4
				c0,0.9-0.2,1.7-0.5,2.6c-0.3,0.8-0.9,1.8-1.7,2.8c-0.8,1-1.9,2.3-3.4,3.7l-4.7,4.9v0.2h10.7v3.1H243.3z M271.2,43.2
				c-1.8,0-3.4-0.5-4.7-1.4c-1.3-1-2.3-2.3-3-4.2c-0.7-1.8-1-4-1-6.6c0-2.6,0.3-4.8,1-6.6c0.7-1.8,1.7-3.2,3-4.2
				c1.3-1,2.9-1.4,4.7-1.4c1.8,0,3.4,0.5,4.7,1.4c1.3,1,2.3,2.3,3,4.2c0.7,1.8,1,4,1,6.6c0,2.6-0.3,4.8-1,6.6
				c-0.7,1.8-1.7,3.2-3,4.2C274.5,42.8,273,43.2,271.2,43.2z M271.2,40.2c1.6,0,2.9-0.8,3.8-2.3c0.9-1.6,1.4-3.8,1.4-6.8
				c0-2-0.2-3.6-0.6-5c-0.4-1.4-1-2.4-1.8-3.1c-0.8-0.7-1.7-1.1-2.7-1.1c-1.6,0-2.8,0.8-3.8,2.4c-0.9,1.6-1.4,3.8-1.4,6.8
				c0,2,0.2,3.6,0.6,5c0.4,1.4,1,2.4,1.8,3.1C269.2,39.8,270.1,40.2,271.2,40.2z M290.3,31c0,2.9-0.4,5.6-1.1,8
				c-0.8,2.4-1.9,4.7-3.3,6.7h-3.2c0.6-0.8,1.1-1.7,1.6-2.8c0.5-1.1,0.9-2.3,1.3-3.6c0.4-1.3,0.7-2.7,0.9-4.1
				c0.2-1.4,0.3-2.8,0.3-4.2c0-1.8-0.2-3.7-0.5-5.6c-0.4-1.9-0.9-3.6-1.5-5.2c-0.6-1.6-1.3-2.9-2.1-3.9h3.2c1.5,2.1,2.6,4.3,3.3,6.7
				C289.9,25.5,290.3,28.1,290.3,31z"/>
		</g>
	</g>
</g>
<g id="Layer_2">
</g>
</svg>
