<?xml version="1.0" encoding="utf-8"?>
<!-- Generator: Adobe Illustrator 26.5.0, SVG Export Plug-In . SVG Version: 6.00 Build 0)  -->
<svg version="1.1" xmlns="http://www.w3.org/2000/svg" xmlns:xlink="http://www.w3.org/1999/xlink" x="0px" y="0px"
	 viewBox="0 0 63 63" style="enable-background:new 0 0 63 63;" xml:space="preserve">
<style type="text/css">
	.st0{fill:url(#SVGID_1_);}
	.st1{fill:url(#SVGID_00000070807762939276685650000006591984013423282620_);}
	.st2{fill:url(#SVGID_00000034793708962388730030000002837906857684056968_);}
	.st3{fill:url(#SVGID_00000016785541562739792710000014690002535136134041_);}
</style>
<g id="Layer_1">
	
		<linearGradient id="SVGID_1_" gradientUnits="userSpaceOnUse" x1="-8.4488" y1="45.5116" x2="66.0155" y2="21.2231" gradientTransform="matrix(1 0 0 -1 0 64)">
		<stop  offset="0" style="stop-color:#1A1A1A"/>
		<stop  offset="1" style="stop-color:#000000"/>
	</linearGradient>
	<path class="st0" d="M34.8,0.9l21.6,12.5c1,0.6,1.8,1.4,2.4,2.4c0.6,1,0.9,2.1,0.9,3.2v25c0,1.1-0.3,2.3-0.9,3.2
		c-0.6,1-1.4,1.8-2.4,2.4L34.8,62.1c-1,0.6-2.1,0.9-3.2,0.9c-1.1,0-2.3-0.3-3.2-0.9L6.6,49.6c-1-0.6-1.8-1.4-2.4-2.4
		c-0.6-1-0.9-2.1-0.9-3.2V19c0-2.3,1.2-4.5,3.2-5.6L28.3,0.9c1-0.6,2.1-0.9,3.2-0.9C32.7,0,33.8,0.3,34.8,0.9z"/>
	
		<linearGradient id="SVGID_00000065060768015041441830000014745783914105361560_" gradientUnits="userSpaceOnUse" x1="31.5371" y1="54.0417" x2="31.5104" y2="19.4474" gradientTransform="matrix(1 0 0 -1 0 64)">
		<stop  offset="0" style="stop-color:#00FFA3"/>
		<stop  offset="1" style="stop-color:#DC1FFF"/>
	</linearGradient>
	<path style="fill:url(#SVGID_00000065060768015041441830000014745783914105361560_);" d="M20.6,38c0.1-0.1,0.2-0.2,0.3-0.2
		c0.1-0.1,0.3-0.1,0.4-0.1h25.8c0.5,0,0.7,0.6,0.4,0.9l-5.1,5.1C42.2,43.9,42,44,41.7,44H15.9c-0.1,0-0.2,0-0.3-0.1
		c-0.1-0.1-0.2-0.1-0.2-0.2c0-0.1-0.1-0.2,0-0.3c0-0.1,0.1-0.2,0.1-0.3L20.6,38z"/>
	
		<linearGradient id="SVGID_00000183247160710801144360000016603456843797322883_" gradientUnits="userSpaceOnUse" x1="31.5224" y1="54.0417" x2="31.4956" y2="19.4474" gradientTransform="matrix(1 0 0 -1 0 64)">
		<stop  offset="0" style="stop-color:#00FFA3"/>
		<stop  offset="1" style="stop-color:#DC1FFF"/>
	</linearGradient>
	<path style="fill:url(#SVGID_00000183247160710801144360000016603456843797322883_);" d="M20.6,18.9c0.1-0.1,0.2-0.2,0.3-0.2
		c0.1-0.1,0.3-0.1,0.4-0.1h25.8c0.5,0,0.7,0.6,0.4,0.9l-5.1,5.1c-0.2,0.2-0.5,0.3-0.7,0.3H15.9c-0.1,0-0.2,0-0.3-0.1
		c-0.1-0.1-0.2-0.1-0.2-0.2c0-0.1-0.1-0.2,0-0.3c0-0.1,0.1-0.2,0.1-0.3L20.6,18.9z"/>
	
		<linearGradient id="SVGID_00000165932457711625955090000016603604033162256022_" gradientUnits="userSpaceOnUse" x1="31.5246" y1="54.0418" x2="31.4979" y2="19.4459" gradientTransform="matrix(1 0 0 -1 0 64)">
		<stop  offset="0" style="stop-color:#00FFA3"/>
		<stop  offset="1" style="stop-color:#DC1FFF"/>
	</linearGradient>
	<path style="fill:url(#SVGID_00000165932457711625955090000016603604033162256022_);" d="M42.4,28.4c-0.2-0.2-0.5-0.3-0.7-0.3H15.8
		c-0.5,0-0.7,0.6-0.4,0.9l5.1,5.1c0.1,0.1,0.2,0.2,0.3,0.2c0.1,0.1,0.3,0.1,0.4,0.1h25.8c0.5,0,0.7-0.6,0.4-0.9L42.4,28.4z"/>
</g>
<g id="Layer_2">
</g>
</svg>
