<?xml version="1.0" encoding="utf-8"?>
<!-- Generator: Adobe Illustrator 26.5.0, SVG Export Plug-In . SVG Version: 6.00 Build 0)  -->
<svg version="1.1" xmlns="http://www.w3.org/2000/svg" xmlns:xlink="http://www.w3.org/1999/xlink" x="0px" y="0px"
	 viewBox="0 0 63 63" style="enable-background:new 0 0 63 63;" xml:space="preserve">
<style type="text/css">
	.st0{fill-rule:evenodd;clip-rule:evenodd;fill:url(#SVGID_1_);}
	.st1{fill:#FFFFFF;}
</style>
<g id="Layer_1">
	
		<linearGradient id="SVGID_1_" gradientUnits="userSpaceOnUse" x1="9.4654" y1="55.3002" x2="70.8421" y2="-8.078" gradientTransform="matrix(1 0 0 -1 0 64)">
		<stop  offset="0" style="stop-color:#D11212"/>
		<stop  offset="1" style="stop-color:#7D110B"/>
	</linearGradient>
	<path class="st0" d="M34.8,0.9l21.6,12.5c1,0.6,1.8,1.4,2.4,2.4c0.6,1,0.9,2.1,0.9,3.2v24.9c0,1.1-0.3,2.3-0.9,3.2
		c-0.6,1-1.4,1.8-2.4,2.4L34.8,62c-1,0.6-2.1,0.9-3.2,0.9c-1.1,0-2.3-0.3-3.2-0.9L6.7,49.6c-1-0.6-1.8-1.4-2.4-2.4
		c-0.6-1-0.9-2.1-0.9-3.2V19c0-1.1,0.3-2.3,0.9-3.2c0.6-1,1.4-1.8,2.4-2.4L28.3,0.9c1-0.6,2.1-0.9,3.2-0.9C32.7,0,33.8,0.3,34.8,0.9
		z"/>
	<path class="st1" d="M44.9,26.2c-1.2-0.8-2.4-1.7-3.7-2.6c0,0-0.1,0-0.1-0.1c-0.1-0.1-0.3-0.2-0.5-0.3l0,0
		c-3.3-0.8-6.7-1.6-9.9-2.4l-8.9-2.2c-0.1,0-0.2,0-0.2-0.1c-0.3-0.1-0.6-0.2-0.9-0.1c-0.1,0-0.2,0-0.3,0.1l-0.1,0.1
		c-0.1,0.1-0.2,0.2-0.2,0.4l0,0.1v0.3l0,0C22,24.7,24,30,25.8,35.1c1.4,4,2.9,8,4.3,12.1c0.1,0.3,0.3,0.5,0.7,0.5h0.1
		c0.1,0,0.3,0,0.4-0.1c0.1-0.1,0.2-0.2,0.3-0.3l5.4-7.9l4-5.8c0.5-0.8,1.1-1.6,1.6-2.4c0.9-1.3,1.8-2.6,2.7-3.9l0-0.1v-0.1
		C45.3,26.9,45.3,26.4,44.9,26.2L44.9,26.2z M38.6,29.1c-1.3,0.7-2.6,1.3-3.9,2l2.3-2.4c1-1,1.9-2.1,2.9-3.1l0,0
		c0.1-0.1,0.2-0.2,0.3-0.3c0.1-0.1,0.2-0.2,0.2-0.2c0.5,0.3,1,0.7,1.5,1.1c0.4,0.3,0.7,0.5,1.1,0.8C41.6,27.5,40.1,28.3,38.6,29.1z
		 M35.3,28.7c-1,1.1-2,2.1-3,3.2c-1.9-2.4-3.9-4.8-5.9-7.1l-2.6-3.2l0,0c-0.2-0.2-0.4-0.5-0.6-0.7c-0.1-0.2-0.3-0.3-0.4-0.5
		c0.8,0.2,1.6,0.4,2.4,0.6c0.7,0.2,1.4,0.3,2.1,0.5l11.9,2.9C37.9,25.9,36.6,27.3,35.3,28.7z M31.9,42.1c0.1-0.7,0.2-1.5,0.2-2.2
		l0.2-1.7c0.1-0.9,0.2-1.9,0.3-2.8l0-0.2c0.1-0.6,0.1-1.2,0.2-1.8c0.1,0,0.2-0.1,0.2-0.1c0.1,0,0.2-0.1,0.3-0.2
		c1.6-0.8,3.2-1.7,4.7-2.5c1.6-0.8,3.2-1.7,4.8-2.5c-1.5,2.1-2.9,4.2-4.4,6.3c-1.2,1.8-2.5,3.6-3.7,5.4c-0.5,0.7-1,1.5-1.5,2.2
		c-0.5,0.8-1.1,1.6-1.7,2.4C31.7,43.7,31.8,42.9,31.9,42.1L31.9,42.1z M22.4,22.1c-0.1-0.2-0.2-0.5-0.3-0.7c1.8,2.2,3.7,4.5,5.5,6.6
		c0.9,1.1,1.9,2.2,2.8,3.4c0.2,0.2,0.4,0.4,0.5,0.7c0.2,0.3,0.5,0.6,0.7,0.9c-0.1,0.7-0.2,1.4-0.2,2.1c0,0.5-0.1,1-0.1,1.4v0
		c0,0.3-0.1,0.6-0.1,0.9l-0.2,1.4l0,0c-0.1,1.4-0.3,2.8-0.4,4.1c-0.1,0.6-0.1,1.1-0.2,1.7c0-0.1-0.1-0.2-0.1-0.3
		c-0.1-0.3-0.2-0.6-0.3-0.8l-0.7-2C27,35,24.7,28.6,22.4,22.1"/>
</g>
<g id="Layer_2">
</g>
</svg>
