<?xml version="1.0" encoding="utf-8"?>
<!-- Generator: Adobe Illustrator 26.5.0, SVG Export Plug-In . SVG Version: 6.00 Build 0)  -->
<svg version="1.1" xmlns="http://www.w3.org/2000/svg" xmlns:xlink="http://www.w3.org/1999/xlink" x="0px" y="0px"
	 viewBox="0 0 63 63" style="enable-background:new 0 0 63 63;" xml:space="preserve">
<style type="text/css">
	.st0{display:none;fill-rule:evenodd;clip-rule:evenodd;fill:url(#SVGID_1_);}
	.st1{display:none;fill:#FFFFFF;}
	.st2{fill-rule:evenodd;clip-rule:evenodd;fill:url(#SVGID_00000121980143243674664930000017755497910508832931_);}
	.st3{fill:#FFFFFF;}
	.st4{fill:#EC0928;}
</style>
<g id="Layer_1">
	
		<linearGradient id="SVGID_1_" gradientUnits="userSpaceOnUse" x1="0.2305" y1="60.2762" x2="63.7311" y2="4.0843" gradientTransform="matrix(1 0 0 -1 0 64)">
		<stop  offset="0" style="stop-color:#53AE94"/>
		<stop  offset="1" style="stop-color:#2E9175"/>
	</linearGradient>
	<path class="st0" d="M34.7,0.9l21.6,12.4c1,0.6,1.8,1.4,2.4,2.4c0.6,1,0.9,2.1,0.9,3.2v24.9c0,1.1-0.3,2.3-0.9,3.2
		c-0.6,1-1.4,1.8-2.4,2.4L34.7,61.9c-1,0.6-2.1,0.9-3.2,0.9c-1.1,0-2.3-0.3-3.2-0.9L6.7,49.5c-1-0.6-1.8-1.4-2.4-2.4
		c-0.6-1-0.9-2.1-0.9-3.2V19c0-1.1,0.3-2.3,0.9-3.2c0.6-1,1.4-1.8,2.4-2.4L28.3,0.9c1-0.6,2.1-0.9,3.2-0.9C32.6,0,33.8,0.3,34.7,0.9
		z"/>
	<path class="st1" d="M34,28.4v-2.9h6.7V21H22.5v4.4h6.7v2.9c-5.4,0.2-9.5,1.3-9.5,2.6s4.1,2.4,9.5,2.6v9.3H34v-9.3
		c5.4-0.2,9.5-1.3,9.5-2.6C43.4,29.7,39.4,28.6,34,28.4L34,28.4z M34,32.8L34,32.8c-0.1,0-0.8,0-2.4,0c-1.2,0-2.1,0-2.4-0.1v0
		c-4.8-0.2-8.3-1-8.3-2c0-1,3.6-1.8,8.3-2V32c0.3,0,1.2,0.1,2.4,0.1c1.5,0,2.2-0.1,2.4-0.1v-3.2c4.8,0.2,8.3,1,8.3,2
		C42.3,31.7,38.7,32.6,34,32.8"/>
	<g>
		<g>
			
				<linearGradient id="SVGID_00000152980882292852791660000005853160846610403241_" gradientUnits="userSpaceOnUse" x1="9.010398e-02" y1="60.3043" x2="63.8758" y2="3.8601" gradientTransform="matrix(1 0 0 -1 0 64)">
				<stop  offset="0" style="stop-color:#53AE94"/>
				<stop  offset="1" style="stop-color:#2E9175"/>
			</linearGradient>
			<path style="fill-rule:evenodd;clip-rule:evenodd;fill:url(#SVGID_00000152980882292852791660000005853160846610403241_);" d="
				M34.8,0.9l21.6,12.5c1,0.6,1.8,1.4,2.4,2.4c0.6,1,0.9,2.1,0.9,3.3v25c0,1.1-0.3,2.3-0.9,3.3c-0.6,1-1.4,1.8-2.4,2.4L34.8,62.1
				c-1,0.6-2.1,0.9-3.3,0.9c-1.1,0-2.3-0.3-3.3-0.9L6.6,49.6c-1-0.6-1.8-1.4-2.4-2.4c-0.6-1-0.9-2.1-0.9-3.3V19
				c0-1.1,0.3-2.3,0.9-3.3c0.6-1,1.4-1.8,2.4-2.4L28.3,0.9c1-0.6,2.1-0.9,3.3-0.9C32.7,0,33.8,0.3,34.8,0.9z"/>
			<path class="st3" d="M34,28.5v-2.9h6.7v-4.5H22.5v4.5h6.7v2.9c-5.4,0.2-9.5,1.3-9.5,2.6c0,1.3,4.1,2.4,9.5,2.6V43H34v-9.4
				c5.4-0.2,9.5-1.3,9.5-2.6C43.5,29.8,39.4,28.7,34,28.5L34,28.5z M34,32.9L34,32.9c-0.1,0-0.8,0-2.4,0c-1.2,0-2.1,0-2.4-0.1v0
				c-4.8-0.2-8.4-1-8.4-2c0-1,3.6-1.8,8.4-2v3.3c0.3,0,1.2,0.1,2.5,0.1c1.5,0,2.2-0.1,2.4-0.1v-3.3c4.8,0.2,8.4,1,8.4,2
				C42.3,31.8,38.8,32.7,34,32.9"/>
			<path class="st4" d="M58.3,46.4c-0.9-0.6-1.8-1.3-2.7-1.9c0,0,0,0-0.1,0c-0.1-0.1-0.2-0.2-0.4-0.2h0c-2.5-0.6-5-1.2-7.4-1.8
				c-2.2-0.5-4.4-1.1-6.6-1.6c-0.1,0-0.1,0-0.2,0c-0.2-0.1-0.4-0.1-0.7-0.1c-0.1,0-0.1,0-0.2,0.1l-0.1,0.1C40,40.9,40,41,39.9,41.1
				l0,0v0.2l0,0c1.4,3.9,2.8,7.9,4.2,11.7c1.1,2.9,2.2,6,3.2,9c0.1,0.2,0.3,0.3,0.5,0.4h0.1c0.2,0,0.4-0.1,0.5-0.3l4-5.9
				c1-1.4,2-2.9,2.9-4.3c0.4-0.6,0.8-1.2,1.2-1.8c0.7-1,1.3-2,2-2.9l0-0.1v-0.1C58.6,46.9,58.7,46.6,58.3,46.4 M53.6,48.5
				c-1,0.5-1.9,1-2.9,1.5l1.7-1.8c0.7-0.8,1.4-1.6,2.2-2.3l0,0c0.1-0.1,0.1-0.2,0.2-0.2l0.2-0.2c0.4,0.3,0.8,0.5,1.1,0.8
				c0.3,0.2,0.5,0.4,0.8,0.6C55.8,47.4,54.7,47.9,53.6,48.5 M51.2,48.3c-0.7,0.8-1.5,1.6-2.2,2.4c-1.4-1.8-2.9-3.6-4.4-5.3
				c-0.7-0.8-1.3-1.6-2-2.4c-0.1-0.2-0.3-0.3-0.4-0.5c-0.1-0.1-0.2-0.2-0.3-0.3c0.6,0.2,1.2,0.3,1.8,0.4c0.5,0.1,1.1,0.2,1.6,0.4
				c2.9,0.7,5.9,1.4,8.8,2.2C53.1,46.2,52.2,47.2,51.2,48.3 M48.7,58.2c0.1-0.5,0.1-1.1,0.2-1.6c0-0.4,0.1-0.9,0.1-1.3
				c0.1-0.7,0.1-1.4,0.2-2.1l0-0.1c0.1-0.4,0.1-0.9,0.1-1.3c0.1,0,0.1-0.1,0.2-0.1c0.1,0,0.2-0.1,0.2-0.1c1.2-0.6,2.4-1.2,3.5-1.8
				c1.2-0.6,2.4-1.2,3.6-1.9c-1.1,1.6-2.2,3.2-3.2,4.7c-0.9,1.3-1.8,2.7-2.8,4c-0.4,0.5-0.8,1.1-1.1,1.6c-0.4,0.6-0.8,1.2-1.2,1.8
				C48.5,59.4,48.6,58.8,48.7,58.2 M41.6,43.3c-0.1-0.2-0.1-0.4-0.2-0.5c1.4,1.7,2.8,3.3,4.1,5c0.7,0.8,1.4,1.7,2.1,2.5
				c0.1,0.2,0.3,0.3,0.4,0.5c0.2,0.2,0.3,0.4,0.5,0.6c-0.1,0.5-0.1,1.1-0.2,1.6c0,0.4-0.1,0.7-0.1,1.1c0,0.2,0,0.5-0.1,0.7
				c0,0.3-0.1,1-0.1,1v0c-0.1,1-0.2,2.1-0.3,3.1c0,0.4-0.1,0.9-0.1,1.3c0-0.1-0.1-0.2-0.1-0.2c-0.1-0.2-0.2-0.4-0.2-0.6l-0.5-1.5
				C45,53,43.3,48.2,41.6,43.3"/>
		</g>
	</g>
</g>
<g id="Layer_2">
</g>
</svg>
