<?xml version="1.0" encoding="utf-8"?>
<!-- Generator: Adobe Illustrator 26.5.0, SVG Export Plug-In . SVG Version: 6.00 Build 0)  -->
<svg version="1.1" xmlns="http://www.w3.org/2000/svg" xmlns:xlink="http://www.w3.org/1999/xlink" x="0px" y="0px"
	 viewBox="0 0 63 63" style="enable-background:new 0 0 63 63;" xml:space="preserve">
<style type="text/css">
	.st0{fill-rule:evenodd;clip-rule:evenodd;fill:url(#SVGID_1_);}
	.st1{fill:#FFFFFF;}
</style>
<g id="Layer_1">
	
		<linearGradient id="SVGID_1_" gradientUnits="userSpaceOnUse" x1="0.2305" y1="60.2762" x2="63.7311" y2="4.0843" gradientTransform="matrix(1 0 0 -1 0 64)">
		<stop  offset="0" style="stop-color:#53AE94"/>
		<stop  offset="1" style="stop-color:#2E9175"/>
	</linearGradient>
	<path class="st0" d="M34.7,0.9l21.6,12.4c1,0.6,1.8,1.4,2.4,2.4c0.6,1,0.9,2.1,0.9,3.2v24.9c0,1.1-0.3,2.3-0.9,3.2
		c-0.6,1-1.4,1.8-2.4,2.4L34.7,61.9c-1,0.6-2.1,0.9-3.2,0.9c-1.1,0-2.3-0.3-3.2-0.9L6.7,49.5c-1-0.6-1.8-1.4-2.4-2.4
		c-0.6-1-0.9-2.1-0.9-3.2V19c0-1.1,0.3-2.3,0.9-3.2c0.6-1,1.4-1.8,2.4-2.4L28.3,0.9c1-0.6,2.1-0.9,3.2-0.9C32.6,0,33.8,0.3,34.7,0.9
		z"/>
	<path class="st1" d="M34,28.4v-2.9h6.7V21H22.5v4.4h6.7v2.9c-5.4,0.2-9.5,1.3-9.5,2.6s4.1,2.4,9.5,2.6v9.3H34v-9.3
		c5.4-0.2,9.5-1.3,9.5-2.6C43.4,29.7,39.4,28.6,34,28.4L34,28.4z M34,32.8L34,32.8c-0.1,0-0.8,0-2.4,0c-1.2,0-2.1,0-2.4-0.1v0
		c-4.8-0.2-8.3-1-8.3-2c0-1,3.6-1.8,8.3-2V32c0.3,0,1.2,0.1,2.4,0.1c1.5,0,2.2-0.1,2.4-0.1v-3.2c4.8,0.2,8.3,1,8.3,2
		C42.3,31.7,38.7,32.6,34,32.8"/>
</g>
<g id="Layer_2">
</g>
</svg>
