<?xml version="1.0" encoding="utf-8"?>
<!-- Generator: Adobe Illustrator 26.5.0, SVG Export Plug-In . SVG Version: 6.00 Build 0)  -->
<svg version="1.1" xmlns="http://www.w3.org/2000/svg" xmlns:xlink="http://www.w3.org/1999/xlink" x="0px" y="0px"
	 viewBox="0 0 63 63" style="enable-background:new 0 0 63 63;" xml:space="preserve">
<style type="text/css">
	.st0{fill-rule:evenodd;clip-rule:evenodd;fill:url(#SVGID_1_);}
	.st1{fill:#FFFFFF;}
</style>
<g id="Layer_1">
	
		<linearGradient id="SVGID_1_" gradientUnits="userSpaceOnUse" x1="50.9197" y1="21.1972" x2="9.3632" y2="45.455" gradientTransform="matrix(1 0 0 -1 0 64)">
		<stop  offset="0" style="stop-color:#F26822"/>
		<stop  offset="1" style="stop-color:#F98D56"/>
	</linearGradient>
	<path class="st0" d="M34.8,0.9l21.6,12.5c1,0.6,1.8,1.4,2.4,2.4c0.6,1,0.9,2.1,0.9,3.3v25c0,1.1-0.3,2.3-0.9,3.3
		c-0.6,1-1.4,1.8-2.4,2.4L34.8,62.1c-1,0.6-2.1,0.9-3.3,0.9c-1.1,0-2.3-0.3-3.3-0.9L6.7,49.6c-1-0.6-1.8-1.4-2.4-2.4
		c-0.6-1-0.9-2.1-0.9-3.3V19c0-1.1,0.3-2.3,0.9-3.3c0.6-1,1.4-1.8,2.4-2.4L28.3,0.9c1-0.6,2.1-0.9,3.3-0.9C32.7,0,33.8,0.3,34.8,0.9
		z"/>
	<path class="st1" d="M20.2,23.4l4.1,4.1l7.3,7.3l11.4-11.4V38h4.9l-1.6,3.3h-3.3h-4.1v-8.9l-7.3,7.3l-7.3-7.3v8.9h-4.1h-3.3
		L15.3,38h4.9V23.4z"/>
</g>
<g id="Layer_2">
</g>
</svg>
