<?xml version="1.0" encoding="utf-8"?>
<!-- Generator: Adobe Illustrator 26.5.0, SVG Export Plug-In . SVG Version: 6.00 Build 0)  -->
<svg version="1.1" xmlns="http://www.w3.org/2000/svg" xmlns:xlink="http://www.w3.org/1999/xlink" x="0px" y="0px"
	 viewBox="0 0 63 63" style="enable-background:new 0 0 63 63;" xml:space="preserve">
<style type="text/css">
	.st0{fill-rule:evenodd;clip-rule:evenodd;fill:url(#SVGID_1_);}
	.st1{fill:#FFFFFF;}
</style>
<g id="Layer_1">
	
		<linearGradient id="SVGID_1_" gradientUnits="userSpaceOnUse" x1="5.0631" y1="65.2776" x2="72.3356" y2="-17.7225" gradientTransform="matrix(1 0 0 -1 0 64)">
		<stop  offset="0" style="stop-color:#11AAE2"/>
		<stop  offset="1" style="stop-color:#016197"/>
	</linearGradient>
	<path class="st0" d="M34.8,0.9l21.6,12.5c1,0.6,1.8,1.4,2.4,2.4c0.6,1,0.9,2.1,0.9,3.2v24.9c0,1.1-0.3,2.3-0.9,3.2
		c-0.6,1-1.4,1.8-2.4,2.4L34.8,62c-1,0.6-2.1,0.9-3.2,0.9c-1.1,0-2.3-0.3-3.2-0.9L6.7,49.5c-1-0.6-1.8-1.4-2.4-2.4
		c-0.6-1-0.9-2.1-0.9-3.2V18.9c0-1.1,0.3-2.3,0.9-3.2c0.6-1,1.4-1.8,2.4-2.4L28.3,0.9c1-0.6,2.1-0.9,3.2-0.9
		C32.7,0,33.8,0.3,34.8,0.9z"/>
	<path class="st1" d="M41.9,18.8h4.2l-8.8,9.1c-0.7,0.8-1.6,1.4-2.6,1.8c-1,0.4-2.1,0.6-3.1,0.6c-1.1,0-2.1-0.2-3.1-0.6
		c-1-0.4-1.9-1-2.6-1.8l-8.8-9.1h4.2l6.7,6.9c0.5,0.5,1,0.9,1.7,1.2c0.6,0.3,1.3,0.4,2,0.4c0.7,0,1.4-0.1,2-0.4
		c0.6-0.3,1.2-0.7,1.7-1.2L41.9,18.8z M21.2,44.1H17l8.8-9.2c0.7-0.8,1.6-1.4,2.6-1.8c1-0.4,2.1-0.6,3.1-0.6c1.1,0,2.1,0.2,3.1,0.6
		c1,0.4,1.9,1,2.6,1.8l8.8,9.2H42l-6.7-7c-0.5-0.5-1-0.9-1.7-1.2c-0.6-0.3-1.3-0.4-2-0.4c-0.7,0-1.4,0.1-2,0.4
		c-0.6,0.3-1.2,0.7-1.7,1.2L21.2,44.1z"/>
</g>
<g id="Layer_2">
</g>
</svg>
