<?xml version="1.0" encoding="utf-8"?>
<!-- Generator: Adobe Illustrator 26.5.0, SVG Export Plug-In . SVG Version: 6.00 Build 0)  -->
<svg version="1.1" xmlns="http://www.w3.org/2000/svg" xmlns:xlink="http://www.w3.org/1999/xlink" x="0px" y="0px"
	 viewBox="0 0 63 63" style="enable-background:new 0 0 63 63;" xml:space="preserve">
<style type="text/css">
	.st0{fill:#F4F7FB;}
	.st1{clip-path:url(#SVGID_00000058555441443355826320000013521655658110839179_);}
	.st2{fill:#2C7DF7;}
</style>
<g id="Layer_1">
	<g>
		<g>
			<path class="st0" d="M34.8,0.9l21.6,12.5c1,0.6,1.8,1.4,2.4,2.4c0.6,1,0.9,2.1,0.9,3.2v24.9c0,1.1-0.3,2.3-0.9,3.2
				c-0.6,1-1.4,1.8-2.4,2.4L34.8,62c-1,0.6-2.1,0.9-3.2,0.9c-1.1,0-2.3-0.3-3.2-0.9L6.8,49.5c-1-0.6-1.8-1.4-2.4-2.4
				c-0.6-1-0.9-2.1-0.9-3.2V18.9c0-1.1,0.3-2.3,0.9-3.2c0.6-1,1.4-1.8,2.4-2.4L28.3,0.9c1-0.6,2.1-0.9,3.2-0.9
				C32.7,0,33.8,0.3,34.8,0.9z"/>
			<g>
				<defs>
					<rect id="SVGID_1_" x="18.6" y="13.6" width="24.3" height="33.1"/>
				</defs>
				<clipPath id="SVGID_00000149352694654624864070000008383325502799504555_">
					<use xlink:href="#SVGID_1_"  style="overflow:visible;"/>
				</clipPath>
				<g style="clip-path:url(#SVGID_00000149352694654624864070000008383325502799504555_);">
					<path class="st2" d="M34.3,46.7c-2.4,0-4.1-0.6-5.2-1.7c-1-1-1.6-2.3-1.6-3.7c0-0.4,0.1-0.8,0.3-1.2c0.2-0.3,0.5-0.6,0.8-0.8
						c0.4-0.2,0.8-0.3,1.2-0.3c0.4,0,0.8,0.1,1.2,0.3c0.3,0.2,0.6,0.5,0.8,0.8c0.2,0.4,0.3,0.8,0.3,1.2c0,0.5-0.1,1-0.4,1.4
						c-0.2,0.3-0.6,0.6-1,0.7c0.4,0.5,0.9,0.8,1.6,1c0.7,0.2,1.4,0.3,2.1,0.3c0.9,0,1.9-0.3,2.7-0.8c0.8-0.6,1.4-1.4,1.7-2.4
						c0.4-1.1,0.6-2.3,0.6-3.5c0-1.2-0.2-2.5-0.6-3.7c-0.3-0.9-1-1.7-1.8-2.3c-0.8-0.5-1.7-0.7-2.6-0.7c-0.8,0.1-1.6,0.3-2.2,0.8
						L30.4,33v-0.8l7.5-10H27.5v10.4c0,0.7,0.2,1.5,0.6,2.1c0.2,0.3,0.5,0.5,0.8,0.6c0.3,0.1,0.6,0.2,1,0.2c0.6,0,1.2-0.2,1.7-0.6
						c0.6-0.4,1-0.9,1.4-1.5c0-0.1,0.1-0.2,0.2-0.2c0.1-0.1,0.2-0.1,0.2-0.1c0.2,0,0.3,0.1,0.5,0.2c0.2,0.2,0.3,0.4,0.3,0.7
						c0,0.2-0.1,0.3-0.1,0.5c-0.4,0.9-1,1.7-1.8,2.2c-0.7,0.5-1.6,0.8-2.5,0.8c-2.2,0-3.8-0.4-4.7-1.3c-0.4-0.5-0.8-1.1-1-1.7
						c-0.2-0.6-0.3-1.3-0.3-1.9V22.1h-5.3v-1.9h5.3v-4.4l-1.2-1.2v-1h3.5l1.3,0.7v5.9l13.7,0l1.4,1.4l-8.4,8.4
						c0.5-0.2,1-0.3,1.6-0.4c1.1,0,2.1,0.3,3.1,0.9c1.1,0.5,2,1.3,2.6,2.4c0.6,0.9,1,1.8,1.2,2.8c0.2,0.8,0.3,1.6,0.3,2.4
						c0,1.6-0.3,3.1-1,4.5c-0.7,1.4-1.7,2.5-3.1,3.1C37.4,46.3,35.9,46.7,34.3,46.7L34.3,46.7z"/>
				</g>
			</g>
		</g>
	</g>
</g>
<g id="Layer_2">
</g>
</svg>
