<?xml version="1.0" encoding="utf-8"?>
<!-- Generator: Adobe Illustrator 26.5.0, SVG Export Plug-In . SVG Version: 6.00 Build 0)  -->
<svg version="1.1" xmlns="http://www.w3.org/2000/svg" xmlns:xlink="http://www.w3.org/1999/xlink" x="0px" y="0px"
	 viewBox="0 0 63 63" style="enable-background:new 0 0 63 63;" xml:space="preserve">
<style type="text/css">
	.st0{clip-path:url(#SVGID_00000173872717882594775510000016995766018017671857_);}
	.st1{fill-rule:evenodd;clip-rule:evenodd;fill:url(#SVGID_00000176740627562657515210000017108634369418102452_);}
	.st2{fill:#FFFFFF;}
</style>
<g id="Layer_1">
	<g>
		<g>
			<g>
				<defs>
					<rect id="SVGID_1_" x="-0.8" y="-0.9" width="64.7" height="64.7"/>
				</defs>
				<clipPath id="SVGID_00000069396463762367088430000015106725734436166273_">
					<use xlink:href="#SVGID_1_"  style="overflow:visible;"/>
				</clipPath>
				<g style="clip-path:url(#SVGID_00000069396463762367088430000015106725734436166273_);">
					
						<linearGradient id="SVGID_00000157304789258991701000000001017516889533171628_" gradientUnits="userSpaceOnUse" x1="-12.5817" y1="56.5446" x2="73.5637" y2="9.5782" gradientTransform="matrix(1 0 0 -1 0 64)">
						<stop  offset="0" style="stop-color:#F4B728"/>
						<stop  offset="1" style="stop-color:#E2A30F"/>
					</linearGradient>
					<path style="fill-rule:evenodd;clip-rule:evenodd;fill:url(#SVGID_00000157304789258991701000000001017516889533171628_);" d="
						M34.7,1l21.5,12.4c1,0.6,1.8,1.4,2.4,2.4c0.6,1,0.9,2.1,0.9,3.2v24.9c0,1.1-0.3,2.3-0.9,3.2c-0.6,1-1.4,1.8-2.4,2.4L34.7,62
						c-1,0.6-2.1,0.9-3.2,0.9c-1.1,0-2.3-0.3-3.2-0.9L6.7,49.5c-1-0.6-1.8-1.4-2.4-2.4c-0.6-1-0.9-2.1-0.9-3.2V19.1
						c0-1.1,0.3-2.3,0.9-3.2c0.6-1,1.4-1.8,2.4-2.4L28.3,1c1-0.6,2.1-0.9,3.2-0.9C32.6,0.1,33.8,0.4,34.7,1z"/>
					<path class="st2" d="M33.4,20.8h6.3v3.5L30,37.5h9.7v4.7h-6.3v3.8h-3.9v-3.8h-6.3v-3.5L33,25.5h-9.7v-4.7h6.3v-3.9h3.9V20.8z"
						/>
				</g>
			</g>
		</g>
	</g>
</g>
<g id="Layer_2">
</g>
</svg>
