<?xml version="1.0" encoding="utf-8"?>
<!-- Generator: Adobe Illustrator 26.5.0, SVG Export Plug-In . SVG Version: 6.00 Build 0)  -->
<svg version="1.1" xmlns="http://www.w3.org/2000/svg" xmlns:xlink="http://www.w3.org/1999/xlink" x="0px" y="0px"
	 viewBox="0 0 63 63" style="enable-background:new 0 0 63 63;" xml:space="preserve">
<style type="text/css">
	.st0{fill:url(#SVGID_1_);}
	.st1{fill:#FFFFFF;}
</style>
<g id="Layer_1">
	<g>
		<g>
			
				<linearGradient id="SVGID_1_" gradientUnits="userSpaceOnUse" x1="11.7202" y1="63.1956" x2="51.5404" y2="1.4338" gradientTransform="matrix(1 0 0 -1 0 64)">
				<stop  offset="0" style="stop-color:#545453"/>
				<stop  offset="1" style="stop-color:#6B6B6B"/>
			</linearGradient>
			<path class="st0" d="M34.8,0.9l21.6,12.5c1,0.6,1.8,1.4,2.4,2.4c0.6,1,0.9,2.1,0.9,3.3v25c0,1.1-0.3,2.3-0.9,3.3
				c-0.6,1-1.4,1.8-2.4,2.4L34.8,62.1c-1,0.6-2.1,0.9-3.3,0.9c-1.1,0-2.3-0.3-3.3-0.9L6.6,49.6c-1-0.6-1.8-1.4-2.4-2.4
				c-0.6-1-0.9-2.1-0.9-3.3V19c0-1.1,0.3-2.3,0.9-3.3c0.6-1,1.4-1.8,2.4-2.4L28.3,0.9c1-0.6,2.1-0.9,3.3-0.9
				C32.7,0,33.8,0.3,34.8,0.9z"/>
			<path class="st1" d="M40.2,37.1c1.1,1.5,2.3,3,3.4,4.6c-2.3,2.7-5.2,4.5-8.6,5.2c-3.8,0.8-7.5,0.2-11-1.7
				c3.1-2.3,6.2-4.6,9.3-6.9c0.7,0.7,1.4,1.3,2,2c0.7,0.7,0.5,0.7,1.4,0.2c1.3-0.7,2.4-1.7,3.2-3c0-0.1,0.1-0.1,0.1-0.2
				C40.1,37.1,40.1,37.1,40.2,37.1z M26.5,40.1c-0.9,0.7-1.7,1.3-2.5,1.9c-0.6,0.5-1.2,0.9-1.8,1.3c-0.2,0.2-0.4,0.2-0.7,0
				c-2.7-2.4-4.3-5.3-5-8.8c-0.6-3.5-0.1-6.9,1.6-10c0-0.1,0.1-0.2,0.1-0.2c0,0,0,0,0.1-0.1c2.3,3,4.6,6.1,6.9,9.1
				c-0.1,0.1-0.1,0.2-0.2,0.2c-0.7,0.7-1.4,1.5-2.1,2.2c-0.2,0.2-0.2,0.4-0.1,0.6c0.7,1.4,1.7,2.5,3,3.5
				C26.2,39.9,26.3,40,26.5,40.1z M39.5,18.5c-1.1,0.8-2.2,1.6-3.3,2.4c-1.9,1.4-3.8,2.8-5.7,4.1c-0.2,0.2-0.4,0.2-0.6,0
				c-0.6-0.7-1.3-1.3-1.9-1.9c-0.2-0.2-0.3-0.2-0.6-0.1c-1.5,0.8-2.7,1.8-3.7,3.2c-0.1,0.1-0.1,0.2-0.2,0.3
				c-0.6-0.7-1.1-1.4-1.6-2.1c-0.6-0.7-1.1-1.5-1.6-2.2c-0.2-0.2-0.2-0.4,0-0.7c2.7-3,6-4.7,10-5.1c3.1-0.3,6.1,0.3,8.9,1.8
				c0.1,0.1,0.2,0.1,0.3,0.2C39.5,18.4,39.5,18.4,39.5,18.5z M45.2,39.4c-0.7-0.9-1.4-1.8-2.1-2.7c-1.5-2-3.1-4.1-4.6-6.1
				c-0.2-0.3-0.2-0.5,0-0.7c0.7-0.7,1.3-1.3,2-2c0.2-0.2,0.2-0.3,0.1-0.6c-0.8-1.5-1.8-2.7-3.2-3.7c-0.1-0.1-0.2-0.2-0.3-0.2
				c0.1-0.1,0.2-0.2,0.3-0.2c1.3-1,2.7-2,4-3c0.2-0.2,0.4-0.2,0.6,0c3.3,3,5.1,6.7,5.3,11.2c0.1,2.6-0.5,5.1-1.7,7.4
				C45.4,39,45.3,39.2,45.2,39.4z"/>
		</g>
	</g>
</g>
<g id="Layer_2">
</g>
</svg>
